<?xml version="1.0" standalone="no"?>
<!DOCTYPE svg PUBLIC "-//W3C//DTD SVG 20010904//EN"
 "http://www.w3.org/TR/2001/REC-SVG-20010904/DTD/svg10.dtd">
<svg version="1.0" xmlns="http://www.w3.org/2000/svg"
 width="3301.000000pt" height="3301.000000pt" viewBox="0 0 3301.000000 3301.000000"
 preserveAspectRatio="xMidYMid meet">
<metadata>
Created by potrace 1.11, written by Peter Selinger 2001-2013
</metadata>
<g transform="translate(0.000000,3301.000000) scale(0.100000,-0.100000)"
fill="#000000" stroke="none">
<path d="M16177 31934 c-1 -1 -89 -5 -195 -8 -106 -4 -218 -8 -250 -11 -31 -2
-104 -7 -162 -10 -58 -4 -130 -8 -160 -11 -30 -2 -86 -6 -125 -9 -84 -6 -177
-14 -225 -20 -19 -2 -64 -7 -100 -11 -36 -3 -66 -7 -67 -8 -2 -2 328 -203 412
-251 19 -11 67 -40 107 -65 40 -25 82 -50 93 -56 11 -6 274 -164 584 -351
l564 -340 48 48 c119 117 289 202 452 227 89 14 242 6 330 -17 191 -50 383
-187 483 -345 16 -25 33 -46 38 -46 4 0 90 29 190 64 266 94 719 254 811 286
232 80 492 172 510 180 24 10 535 190 550 193 15 4 167 58 190 68 11 5 33 13
49 19 34 13 32 17 -13 25 -19 3 -37 8 -41 10 -3 2 -17 6 -31 9 -13 2 -85 18
-159 36 -133 30 -631 133 -700 144 -19 3 -46 8 -60 11 -35 7 -187 33 -235 40
-22 4 -51 8 -65 11 -14 2 -45 7 -70 10 -25 3 -52 8 -62 9 -9 2 -38 6 -65 10
-26 4 -59 9 -73 11 -14 2 -50 6 -80 10 -30 3 -62 7 -70 9 -8 2 -42 7 -75 10
-33 3 -67 8 -75 10 -8 2 -44 7 -80 10 -36 3 -81 8 -100 10 -19 3 -62 7 -95 10
-33 3 -76 8 -95 10 -52 6 -231 21 -360 30 -41 2 -109 7 -150 10 -315 21 -498
27 -948 29 -232 1 -423 1 -425 0z"/>
<path d="M14275 31769 c-46 -7 -134 -20 -225 -35 -81 -12 -283 -48 -340 -59
-14 -3 -38 -8 -55 -10 -16 -3 -65 -12 -108 -21 -42 -8 -90 -18 -105 -21 -15
-3 -31 -6 -37 -7 -5 -2 -28 -6 -50 -11 -31 -6 -257 -57 -485 -110 -96 -22
-491 -126 -570 -150 -25 -8 -130 -39 -235 -71 -201 -59 -458 -143 -665 -217
-289 -103 -335 -120 -343 -127 -8 -7 90 -91 358 -305 83 -66 152 -123 155
-126 3 -3 127 -103 275 -223 149 -120 279 -225 290 -234 11 -10 103 -85 205
-167 243 -196 575 -465 728 -590 67 -55 140 -113 161 -130 38 -29 446 -360
486 -393 43 -37 280 -229 319 -259 23 -17 135 -108 250 -201 l209 -170 61 34
c58 32 61 35 60 71 -1 56 -14 249 -18 270 -2 10 -7 61 -10 113 -4 52 -9 111
-11 130 -2 19 -7 76 -10 125 -4 50 -9 110 -11 135 -13 172 -23 289 -29 355 -3
28 -7 84 -10 125 -3 41 -7 95 -10 120 -6 59 -16 188 -30 361 -3 46 -8 100 -10
119 -2 19 -7 76 -10 126 -4 50 -8 104 -10 120 -2 16 -6 72 -10 124 -3 52 -8
111 -10 130 -2 19 -7 73 -11 120 -3 47 -7 101 -9 120 -2 19 -6 73 -10 120 -3
47 -8 101 -10 120 -2 19 -7 73 -10 120 -4 47 -8 99 -10 115 -2 17 -6 75 -10
130 -4 55 -8 109 -10 121 -2 11 -6 65 -10 120 -4 54 -8 99 -9 100 0 0 -23 -3
-51 -7z"/>
<path d="M14625 31638 c2 -18 6 -78 10 -133 4 -55 8 -106 10 -115 1 -8 6 -58
9 -110 4 -52 9 -115 11 -140 2 -25 6 -79 9 -120 4 -41 8 -91 11 -110 2 -19 7
-75 10 -125 3 -49 8 -108 10 -130 2 -22 7 -76 10 -120 3 -44 8 -96 10 -115 2
-19 7 -75 10 -125 3 -49 8 -106 10 -125 2 -19 7 -71 10 -115 3 -44 7 -100 10
-125 2 -25 7 -76 10 -115 12 -151 15 -193 21 -260 12 -136 13 -150 19 -248 3
-54 8 -106 9 -115 2 -9 7 -62 10 -117 4 -55 9 -111 11 -125 2 -14 6 -65 10
-115 3 -49 8 -106 10 -125 2 -19 7 -75 11 -125 3 -49 8 -108 9 -130 2 -22 6
-80 10 -130 4 -49 10 -93 14 -97 5 -6 66 -29 141 -54 11 -4 96 78 260 247 135
139 286 293 335 344 50 51 207 213 350 360 143 147 340 349 437 449 167 171
176 182 162 201 -32 43 -103 204 -119 270 -33 132 -24 371 15 446 6 10 10 26
10 36 -1 13 -161 115 -591 373 -325 195 -606 364 -624 375 -19 11 -120 72
-225 135 -105 63 -203 122 -218 131 -15 9 -69 41 -120 73 -51 31 -94 56 -96
56 -2 0 -3 -15 -1 -32z"/>
<path d="M20951 31253 c-2 -27 -4 -66 -6 -88 -2 -22 -7 -78 -10 -125 -3 -47
-8 -110 -10 -140 -2 -30 -7 -86 -10 -125 -3 -38 -7 -95 -10 -125 -4 -50 -8
-102 -20 -275 -2 -33 -6 -89 -9 -125 -21 -264 -23 -293 -31 -405 -3 -49 -8
-112 -10 -140 -8 -97 -15 -181 -20 -260 -3 -44 -8 -103 -10 -132 -3 -28 -7
-91 -10 -140 -3 -48 -7 -106 -10 -128 -2 -22 -7 -77 -10 -122 -6 -78 -5 -82
17 -88 49 -15 158 -87 209 -139 110 -112 169 -255 169 -411 0 -57 4 -84 13
-88 6 -2 107 -43 222 -90 116 -47 318 -129 450 -182 132 -53 321 -130 420
-170 99 -40 333 -135 520 -210 187 -75 354 -143 370 -150 69 -31 61 -37 183
143 62 92 168 247 235 344 67 98 149 217 182 265 34 49 103 151 155 228 52 77
97 142 100 145 3 3 30 41 59 85 30 44 86 127 126 185 122 177 385 562 423 620
20 30 40 57 43 60 3 3 23 31 44 63 32 49 36 60 24 71 -14 13 -346 216 -354
216 -2 0 -40 22 -84 50 -45 27 -81 46 -81 43 0 -3 -8 1 -17 9 -18 15 -44 30
-303 170 -846 458 -1801 859 -2746 1152 -99 31 -185 56 -191 56 -5 0 -11 -21
-12 -47z"/>
<path d="M20520 31233 c-69 -25 -201 -72 -295 -105 -93 -33 -231 -81 -305
-107 -74 -27 -187 -66 -250 -89 -255 -90 -1274 -449 -1476 -519 -98 -34 -102
-37 -98 -62 8 -51 10 -167 3 -206 -4 -22 -10 -56 -13 -75 -3 -19 -12 -55 -21
-79 -18 -51 -18 -51 -6 -51 5 0 109 -60 232 -133 123 -73 266 -158 317 -188
51 -29 100 -59 110 -64 9 -6 73 -44 142 -84 69 -41 184 -109 255 -151 72 -43
240 -142 375 -222 135 -80 341 -202 458 -272 118 -69 215 -126 217 -126 1 0
25 18 51 40 57 47 173 106 227 116 21 3 40 12 42 18 2 6 7 54 10 106 3 52 8
115 10 140 2 25 6 88 10 140 3 52 7 113 10 135 4 40 14 172 20 275 2 30 6 82
9 115 3 33 8 96 11 140 3 44 8 104 10 134 3 29 7 87 10 130 6 87 14 195 20
261 2 25 6 86 10 135 3 50 8 110 10 135 2 25 7 88 10 140 3 52 8 113 10 135 2
22 7 83 10 135 4 52 8 107 10 123 2 16 -1 27 -8 26 -7 0 -68 -21 -137 -46z"/>
<path d="M10827 30712 c-3 -9 -235 -703 -516 -1541 -281 -839 -509 -1526 -507
-1528 2 -2 38 -25 79 -51 184 -115 326 -285 406 -484 13 -32 26 -58 30 -58 3
0 40 6 81 14 41 8 91 17 110 20 19 3 123 21 230 40 107 19 211 38 230 41 19 3
71 13 115 21 44 7 94 16 110 19 17 3 46 8 65 11 19 3 44 8 55 9 49 9 142 26
165 30 14 3 54 10 90 16 36 6 151 26 255 45 105 18 206 36 225 40 19 3 59 10
88 15 28 5 76 13 105 18 28 5 68 12 87 16 42 7 246 43 275 49 11 2 40 7 65 11
51 8 74 12 110 20 14 2 39 7 55 9 34 6 80 14 110 20 11 2 40 7 65 11 25 4 54
9 65 11 11 3 36 7 55 10 19 2 49 8 65 11 17 3 39 7 50 8 11 2 72 12 135 24
162 30 268 48 320 57 25 4 47 8 50 9 3 1 25 5 50 9 25 5 54 10 65 12 54 10
312 56 330 58 67 9 81 17 83 44 1 15 9 51 19 80 9 31 12 56 7 62 -5 4 -63 51
-129 104 -66 53 -136 109 -155 125 -19 16 -150 121 -290 235 -140 114 -262
212 -270 219 -8 7 -85 69 -170 138 -85 69 -333 269 -550 445 -217 176 -458
371 -535 433 -77 62 -149 120 -160 129 -57 47 -251 205 -415 337 -347 280
-405 327 -425 344 -39 33 -327 266 -350 283 -22 17 -23 17 -28 0z"/>
<path d="M10430 30680 c-47 -21 -101 -46 -120 -54 -293 -128 -773 -361 -1030
-501 -63 -34 -151 -82 -195 -105 -210 -113 -664 -383 -865 -515 -104 -68 -426
-281 -433 -286 -5 -3 77 -127 181 -275 104 -148 230 -327 280 -399 49 -71 111
-159 137 -195 51 -71 251 -355 402 -572 52 -76 97 -138 98 -138 1 0 27 11 57
24 71 32 180 63 248 73 67 9 251 10 302 1 l37 -7 42 127 c24 70 44 132 46 137
1 6 207 621 457 1368 250 746 452 1357 448 1356 -4 -1 -45 -18 -92 -39z"/>
<path d="M17869 29664 c-37 -39 -145 -123 -169 -132 -8 -3 -17 -8 -20 -12 -8
-9 -120 -57 -168 -71 l-44 -13 7 -100 c3 -56 8 -130 10 -166 13 -202 17 -261
20 -320 7 -117 15 -264 20 -335 3 -38 7 -110 10 -160 3 -49 7 -119 9 -155 3
-36 8 -117 12 -180 3 -63 8 -135 9 -160 2 -25 6 -99 10 -165 3 -66 8 -145 10
-175 2 -30 7 -102 10 -160 3 -58 8 -125 10 -150 2 -25 7 -103 10 -175 3 -71 8
-152 10 -180 2 -27 7 -93 10 -145 6 -118 14 -245 20 -330 8 -122 18 -265 18
-277 0 -6 27 -16 60 -23 32 -6 98 -31 145 -56 l86 -44 31 29 c16 16 53 50 80
76 57 54 345 329 440 420 53 51 237 226 444 424 57 54 332 317 446 426 35 33
138 132 230 220 92 88 186 177 209 199 22 21 83 79 134 128 l93 90 -30 77
c-43 111 -53 214 -32 325 6 33 10 60 8 62 -4 3 -547 324 -607 359 -30 17 -74
43 -97 58 -24 15 -44 27 -47 27 -2 0 -51 29 -109 64 -58 35 -109 65 -113 67
-5 2 -93 55 -197 117 -103 61 -190 112 -193 112 -2 0 -17 9 -32 19 -24 17
-398 239 -447 266 -11 6 -75 43 -141 83 -67 39 -124 72 -126 72 -2 0 -20 -16
-39 -36z"/>
<path d="M16578 29318 c-128 -132 -269 -278 -313 -323 -453 -466 -617 -634
-695 -715 -50 -52 -139 -143 -197 -202 l-105 -107 26 -63 c34 -88 40 -119 39
-223 0 -62 -7 -108 -21 -148 l-20 -59 212 -175 c116 -96 229 -190 251 -208 22
-18 128 -106 235 -195 107 -89 213 -177 235 -195 22 -18 137 -112 255 -210
118 -98 264 -219 325 -269 127 -105 121 -101 243 -201 84 -70 94 -76 110 -63
33 28 117 75 172 95 63 24 59 2 45 218 -4 66 -9 145 -10 175 -2 30 -6 102 -9
160 -4 58 -9 139 -11 180 -5 79 -11 176 -20 322 -3 47 -8 122 -10 165 -8 146
-16 268 -20 328 -3 33 -7 105 -10 160 -3 55 -7 132 -10 170 -3 39 -7 113 -10
165 -3 52 -7 122 -10 155 -3 33 -7 107 -10 165 -10 178 -22 376 -29 475 -3 39
-8 124 -12 190 -3 66 -7 136 -9 155 -2 19 -4 67 -5 106 l-3 71 -66 13 c-83 16
-203 61 -263 99 l-46 29 -234 -240z"/>
<path d="M25190 29303 c0 -4 12 -51 26 -103 14 -52 29 -111 34 -130 5 -19 16
-64 25 -100 9 -36 18 -72 20 -80 9 -37 109 -424 131 -510 14 -52 27 -102 29
-110 1 -8 24 -96 50 -195 25 -99 48 -187 50 -195 7 -30 144 -567 160 -625 9
-33 18 -67 20 -75 2 -8 24 -96 49 -194 25 -99 48 -190 50 -203 7 -37 15 -43
56 -43 22 0 65 -7 97 -15 250 -64 428 -275 448 -529 2 -38 7 -71 9 -73 4 -4
203 -67 261 -83 28 -8 226 -69 600 -185 83 -26 177 -55 210 -65 33 -10 125
-38 205 -63 80 -25 197 -61 260 -81 63 -19 306 -94 540 -166 234 -73 452 -140
485 -150 33 -10 114 -35 180 -55 66 -20 126 -38 133 -40 8 -3 -2 16 -21 42
-19 27 -55 77 -80 113 -79 112 -274 375 -377 510 -53 69 -263 333 -270 340 -3
3 -37 43 -75 90 -39 47 -80 96 -91 110 -60 71 -159 186 -164 190 -3 3 -61 68
-130 145 -69 77 -129 145 -135 151 -5 6 -76 81 -156 165 -237 249 -391 402
-748 739 -9 9 -61 56 -116 105 -55 50 -102 92 -105 95 -10 11 -177 156 -225
197 -28 23 -85 71 -129 108 -104 88 -445 360 -521 416 -33 24 -62 46 -65 49
-20 21 -373 277 -542 393 -149 102 -178 121 -178 110z"/>
<path d="M24814 29175 c-44 -64 -95 -138 -114 -165 -19 -26 -78 -112 -130
-189 -97 -145 -373 -548 -387 -566 -5 -5 -37 -53 -72 -105 -71 -105 -80 -118
-390 -570 -40 -58 -102 -150 -139 -205 -37 -55 -71 -103 -76 -107 -6 -4 3 -12
20 -19 16 -6 43 -17 59 -24 17 -7 217 -88 445 -180 228 -91 424 -170 435 -176
11 -5 220 -90 464 -188 l444 -180 43 48 c24 26 68 65 99 86 30 21 55 40 55 42
0 1 -9 36 -20 77 -12 42 -23 84 -25 96 -2 11 -16 64 -30 117 -15 54 -29 106
-31 116 -4 21 -45 183 -115 456 -28 106 -53 202 -55 212 -2 11 -6 29 -9 40 -2
12 -12 47 -21 78 -9 31 -17 63 -19 71 -2 8 -26 105 -55 215 -28 110 -53 208
-55 218 -2 10 -7 27 -10 37 -3 10 -7 27 -9 37 -2 10 -11 45 -20 78 -22 79 -25
91 -31 116 -2 11 -7 29 -10 39 -3 10 -8 27 -10 37 -17 81 -143 564 -148 570
-3 2 -40 -48 -83 -112z"/>
<path d="M7515 29027 c-172 -121 -789 -595 -815 -626 -3 -3 -32 -28 -65 -56
-93 -77 -328 -278 -351 -300 -11 -11 -38 -34 -58 -52 -40 -33 -71 -62 -290
-267 -177 -165 -544 -533 -695 -697 -69 -74 -132 -141 -140 -150 -28 -28 -146
-162 -158 -179 -11 -15 -7 -16 35 -14 26 1 128 5 227 9 99 4 205 8 235 10 30
2 127 7 215 11 88 3 189 7 225 9 36 2 139 6 230 9 91 4 197 9 235 11 74 4 269
13 450 20 172 7 548 23 685 30 52 3 157 7 234 10 76 3 177 7 225 10 47 2 153
7 236 10 82 4 153 9 156 11 4 2 10 30 14 61 21 173 128 388 266 537 l39 43
-273 389 c-150 214 -289 412 -308 439 -19 28 -56 79 -80 115 -125 179 -433
616 -438 622 -3 4 -19 -3 -36 -15z"/>
<path d="M20999 27872 l-66 -65 57 -141 c126 -310 453 -1113 465 -1141 7 -16
46 -111 85 -210 75 -186 86 -208 101 -199 20 12 94 18 229 19 180 0 257 -14
393 -73 32 -14 59 -23 61 -21 1 2 42 63 91 134 154 226 235 345 372 543 73
106 133 197 133 202 0 5 3 10 8 12 17 7 134 190 126 197 -5 5 -49 24 -99 44
-49 20 -200 80 -335 135 -135 55 -398 161 -585 237 -187 75 -353 143 -370 150
-16 7 -100 41 -185 75 -85 34 -204 82 -265 106 -60 25 -119 48 -130 53 -18 7
-32 -2 -86 -57z"/>
<path d="M20215 27738 c-46 -46 -329 -317 -436 -419 -26 -24 -120 -114 -209
-199 -89 -85 -190 -181 -224 -214 -33 -32 -135 -129 -226 -216 -91 -87 -194
-186 -230 -220 -36 -34 -106 -101 -155 -148 -163 -156 -439 -419 -509 -485
l-69 -66 28 -62 c119 -266 65 -568 -136 -768 l-51 -49 50 -94 c27 -51 89 -169
137 -263 48 -93 104 -201 125 -240 21 -38 75 -142 120 -230 85 -164 186 -359
297 -570 68 -130 75 -136 131 -96 15 11 106 69 202 129 96 61 207 130 245 155
39 24 192 120 340 214 149 93 341 214 428 269 86 54 201 126 255 160 53 33
167 104 252 158 85 54 199 126 254 159 101 63 116 78 98 100 -17 19 -61 180
-69 250 -37 314 66 622 282 843 68 69 162 144 197 157 21 7 27 -10 -97 292
-81 199 -360 884 -480 1180 -90 222 -103 248 -116 240 -18 -12 -145 -5 -204
10 -33 9 -87 29 -119 45 -33 17 -60 29 -60 29 -1 -1 -23 -24 -51 -51z"/>
<path d="M14275 27460 c-70 -14 -98 -20 -160 -30 -33 -5 -71 -12 -85 -15 -20
-4 -227 -40 -345 -60 -16 -3 -41 -8 -55 -11 -26 -6 -34 -8 -115 -20 -27 -4
-54 -8 -60 -10 -17 -4 -65 -13 -185 -33 -170 -29 -401 -70 -430 -76 -14 -3
-52 -10 -85 -15 -120 -20 -290 -50 -305 -55 -8 -2 -35 -7 -60 -10 -25 -3 -52
-8 -60 -10 -8 -2 -35 -7 -60 -10 -25 -4 -76 -13 -115 -20 -68 -14 -154 -29
-225 -40 -19 -3 -46 -8 -60 -10 -59 -12 -78 -16 -135 -25 -82 -14 -112 -19
-170 -30 -27 -5 -66 -12 -85 -15 -19 -3 -42 -8 -50 -10 -8 -2 -33 -7 -55 -10
-23 -3 -52 -8 -65 -10 -14 -3 -52 -10 -85 -15 -33 -5 -70 -12 -81 -14 -12 -2
-37 -7 -55 -10 -19 -3 -43 -7 -54 -10 -11 -2 -40 -7 -65 -11 -25 -4 -54 -9
-65 -11 -36 -7 -129 -23 -165 -29 -19 -3 -42 -8 -50 -10 -8 -2 -33 -6 -55 -10
-22 -3 -76 -12 -120 -20 -44 -8 -96 -17 -115 -20 -19 -3 -35 -7 -36 -8 -2 -1
-4 -33 -5 -71 -1 -38 -8 -101 -15 -140 -16 -87 -16 -96 -5 -96 7 0 517 -214
606 -255 17 -7 152 -65 300 -128 286 -122 469 -200 523 -223 56 -25 92 -40
337 -144 132 -56 254 -108 270 -116 124 -55 715 -304 722 -304 6 0 27 21 48
48 90 110 222 200 370 249 70 23 97 26 216 27 l136 1 53 140 c29 77 67 178 85
225 18 47 44 117 58 155 15 39 32 84 38 100 7 17 13 35 15 40 2 6 48 129 104
275 56 146 112 294 125 330 57 157 76 206 84 225 5 11 21 51 34 88 l26 68 -54
52 c-29 29 -67 76 -85 105 -17 29 -32 52 -33 51 -1 -1 -20 -5 -42 -9z"/>
<path d="M15060 27229 c-77 -40 -154 -61 -235 -65 l-70 -3 -108 -288 c-59
-158 -112 -297 -117 -308 -10 -23 -109 -284 -147 -390 -30 -84 -13 -40 -144
-380 l-107 -280 36 -30 c128 -105 208 -203 260 -316 89 -196 84 -444 -14 -642
-44 -90 -87 -148 -163 -220 l-60 -58 121 -247 c66 -136 161 -330 210 -432 50
-102 92 -187 93 -188 2 -2 30 16 62 39 75 55 728 544 768 574 32 25 773 579
1010 755 77 57 145 108 150 112 6 5 87 66 181 136 l172 129 -23 56 c-32 77
-40 134 -39 257 1 90 5 118 33 199 29 87 30 96 15 104 -9 5 -33 24 -53 42 -20
17 -153 128 -296 246 -143 117 -271 224 -285 235 -14 12 -149 124 -300 248
-151 125 -284 235 -295 244 -11 10 -45 38 -75 62 -30 25 -60 50 -66 56 -6 5
-31 26 -54 45 -24 18 -64 51 -89 73 -25 21 -55 45 -66 55 -11 9 -72 59 -135
112 l-116 96 -54 -28z"/>
<path d="M23283 26941 c-28 -42 -84 -123 -124 -181 -39 -58 -104 -152 -143
-210 -39 -58 -73 -107 -76 -110 -3 -3 -34 -48 -69 -100 -35 -52 -118 -173
-183 -268 -65 -95 -121 -178 -123 -185 -3 -6 18 -37 45 -67 65 -71 141 -181
171 -248 27 -61 17 -59 154 -23 44 12 88 24 98 26 10 2 27 7 37 10 10 3 27 7
37 10 16 3 118 29 548 140 72 18 238 61 370 95 132 33 254 65 271 71 17 5 40
11 50 13 11 2 39 9 64 16 25 7 52 14 60 15 11 3 302 78 423 110 9 3 25 7 35 9
75 17 310 80 321 86 7 4 15 25 16 47 l2 40 -131 52 c-72 29 -144 59 -161 66
-16 7 -88 36 -160 65 -71 28 -149 60 -172 71 -24 10 -46 19 -49 19 -3 0 -20 6
-37 14 -18 8 -162 67 -322 131 -159 64 -360 145 -445 180 -180 73 -334 135
-405 163 l-50 20 -52 -77z"/>
<path d="M8207 26543 c-2 -1 -61 -4 -132 -7 -72 -4 -177 -8 -235 -11 -58 -2
-161 -7 -230 -10 -69 -3 -179 -7 -245 -10 -201 -9 -314 -14 -450 -20 -180 -7
-424 -18 -685 -30 -52 -3 -160 -7 -240 -10 -80 -3 -183 -7 -230 -10 -47 -2
-152 -7 -235 -10 -82 -4 -181 -8 -220 -10 -38 -2 -146 -7 -240 -11 -93 -3
-172 -7 -173 -9 -2 -2 30 -45 71 -97 40 -51 168 -212 282 -358 114 -146 231
-294 260 -330 28 -36 119 -150 201 -255 82 -104 155 -197 161 -205 7 -8 60
-76 118 -150 139 -176 206 -262 610 -775 186 -236 397 -504 468 -595 72 -91
140 -177 152 -192 l22 -26 94 160 c52 89 103 177 114 197 11 20 47 81 80 136
179 304 355 604 372 635 11 19 66 114 123 210 56 96 114 195 128 220 13 25 31
52 38 61 8 8 14 18 14 21 0 5 51 93 250 433 214 365 260 444 260 449 0 2 -27
31 -60 62 -145 138 -263 345 -295 517 l-7 35 -70 -2 c-38 0 -70 -2 -71 -3z"/>
<path d="M10195 26178 c-24 -42 -118 -152 -167 -197 -53 -48 -152 -117 -210
-147 -27 -13 -48 -29 -48 -35 0 -6 16 -65 36 -132 63 -217 102 -350 138 -472
45 -156 125 -427 188 -640 27 -93 53 -183 58 -200 10 -40 123 -428 154 -530
14 -44 48 -161 76 -260 28 -99 58 -199 67 -221 l15 -42 1914 0 c1053 0 1914 4
1914 9 0 4 -58 126 -128 271 -71 145 -157 322 -192 393 -35 72 -67 135 -71
141 -6 7 -25 7 -66 -2 -74 -16 -250 -10 -328 10 -87 23 -231 98 -296 153 -206
178 -299 419 -266 693 l7 55 -222 94 c-244 103 -905 385 -953 406 -16 8 -122
53 -235 100 -113 48 -223 95 -245 105 -22 10 -191 81 -375 160 -184 78 -348
148 -365 155 -16 7 -79 34 -140 60 -114 49 -162 69 -205 88 -14 6 -28 12 -31
13 -3 2 -14 -11 -24 -28z"/>
<path d="M4719 26105 c-1 -22 -3 -49 -4 -60 -1 -11 -5 -56 -9 -100 -4 -44 -9
-98 -11 -120 -3 -22 -7 -71 -10 -110 -3 -38 -7 -88 -10 -110 -2 -22 -7 -65 -9
-95 -3 -30 -8 -80 -11 -110 -5 -54 -12 -126 -20 -225 -4 -48 -11 -120 -20
-215 -2 -25 -7 -74 -10 -110 -3 -36 -7 -83 -10 -105 -7 -63 -16 -164 -30 -331
-2 -28 -6 -71 -9 -95 -5 -44 -16 -152 -21 -219 -4 -54 -15 -180 -20 -230 -7
-71 -14 -139 -20 -215 -4 -38 -8 -84 -10 -102 -5 -42 -17 -181 -19 -218 l-1
-30 1243 -1 c683 -1 1242 1 1242 4 0 5 -118 162 -130 172 -3 3 -41 50 -84 105
-42 55 -85 109 -94 120 -9 11 -32 41 -52 66 -19 26 -132 169 -250 319 -118
150 -338 428 -488 619 -150 190 -278 353 -285 361 -6 8 -28 35 -47 60 -19 25
-40 52 -47 60 -7 8 -74 94 -150 190 -236 302 -585 745 -594 755 -5 5 -10 -7
-10 -30z"/>
<path d="M4333 25971 c-43 -55 -150 -197 -238 -316 -88 -119 -176 -238 -195
-263 -67 -92 -398 -590 -511 -772 -118 -189 -349 -578 -349 -587 0 -3 -15 -31
-34 -62 -142 -238 -589 -1132 -573 -1147 2 -2 25 3 53 12 63 19 403 114 427
119 10 2 27 7 37 10 10 3 27 8 37 10 10 2 90 24 178 49 256 71 854 237 928
256 38 10 70 20 72 22 6 6 13 58 20 148 4 47 8 99 10 115 2 17 6 66 10 110 4
44 8 98 11 120 6 68 13 147 20 225 4 41 8 89 10 105 1 17 5 69 9 116 3 48 8
97 10 110 2 13 6 62 10 109 3 47 7 96 9 110 3 14 7 63 11 110 3 47 8 103 10
125 4 37 8 80 20 225 3 30 7 75 10 100 2 25 7 81 10 125 3 44 8 96 10 115 3
19 7 64 10 100 6 70 12 146 20 225 10 106 16 172 21 235 2 36 7 82 10 103 3
20 3 37 0 37 -2 0 -39 -45 -83 -99z"/>
<path d="M25305 25870 c-11 -6 -137 -39 -280 -76 -143 -36 -267 -67 -275 -69
-51 -14 -368 -96 -383 -100 -10 -2 -27 -7 -37 -10 -10 -3 -27 -7 -37 -9 -10
-2 -81 -20 -158 -41 -77 -20 -147 -38 -155 -40 -8 -2 -69 -17 -135 -34 -66
-18 -127 -33 -135 -35 -34 -8 -449 -116 -505 -131 -33 -9 -69 -18 -80 -20 -11
-3 -69 -17 -130 -33 l-110 -28 -1 -95 c-1 -192 -31 -319 -111 -479 l-53 -105
34 -30 c18 -16 105 -93 192 -170 88 -77 173 -153 191 -170 17 -16 53 -49 80
-72 26 -22 60 -52 74 -65 14 -12 56 -50 94 -83 38 -33 78 -69 91 -80 12 -11
37 -33 55 -49 19 -17 75 -66 124 -110 113 -100 216 -191 321 -284 l81 -72 134
228 c73 125 155 265 182 312 27 47 58 97 68 112 11 15 19 29 19 32 0 3 26 49
59 103 32 54 98 166 146 248 48 83 96 164 106 180 10 17 37 64 61 105 23 41
47 83 53 92 20 33 174 296 345 588 95 162 181 308 192 323 l20 29 -24 26 c-14
15 -40 48 -58 75 -18 26 -34 47 -34 46 -1 0 -10 -4 -21 -9z"/>
<path d="M26324 25809 c-15 -23 -55 -65 -87 -94 l-59 -52 67 -189 c38 -104 78
-218 90 -254 13 -36 30 -83 38 -105 9 -22 64 -175 122 -340 59 -165 136 -381
172 -480 68 -191 117 -326 233 -650 40 -110 83 -232 97 -271 l24 -72 797 0
798 0 10 22 c11 22 93 178 149 281 57 104 299 556 368 685 22 41 54 102 72
135 18 33 50 94 73 135 80 151 105 196 139 258 19 35 31 67 27 72 -5 4 -61 24
-124 43 -328 101 -526 162 -630 193 -63 19 -126 39 -140 43 -25 9 -90 29 -455
141 -110 34 -263 81 -340 105 -77 24 -288 89 -470 145 -181 56 -357 110 -390
120 -51 16 -487 151 -536 166 -11 3 -26 -10 -45 -37z"/>
<path d="M8945 25771 c-13 -26 -89 -156 -120 -206 -14 -22 -28 -46 -32 -54 -3
-8 -49 -86 -101 -175 -52 -89 -103 -174 -112 -191 -40 -69 -181 -311 -189
-325 -10 -15 -26 -42 -183 -310 -46 -80 -124 -212 -173 -295 -48 -82 -96 -163
-105 -180 -9 -16 -45 -77 -79 -133 -33 -57 -61 -105 -61 -107 0 -2 -19 -34
-42 -71 -23 -38 -56 -94 -73 -124 -75 -131 -149 -257 -162 -277 l-14 -21 1346
0 c740 0 1347 3 1349 6 2 4 -36 144 -85 312 -50 168 -142 483 -205 700 -64
217 -171 584 -239 815 -68 231 -134 458 -147 504 l-24 84 -135 -1 c-136 -1
-247 16 -348 52 -55 20 -54 20 -66 -3z"/>
<path d="M25623 25488 c-33 -57 -143 -245 -245 -418 -102 -173 -195 -331 -205
-350 -11 -19 -43 -73 -70 -120 -28 -47 -117 -197 -197 -335 -80 -137 -150
-257 -155 -265 -71 -116 -397 -677 -399 -686 -2 -9 259 -12 1182 -12 l1185 0
-35 102 c-19 55 -41 117 -49 136 -7 19 -37 100 -65 180 -52 145 -131 368 -175
490 -13 36 -38 106 -55 155 -18 50 -36 99 -40 110 -7 15 -236 655 -382 1067
-10 27 -13 28 -76 27 -65 0 -77 1 -133 16 -24 6 -29 0 -86 -97z"/>
<path d="M17060 24849 c-36 -27 -76 -58 -90 -69 -14 -11 -272 -204 -575 -430
-302 -226 -561 -420 -575 -430 -14 -10 -113 -85 -220 -165 -107 -80 -206 -154
-220 -165 -14 -10 -74 -55 -135 -100 -60 -45 -119 -89 -130 -99 -11 -9 -36
-27 -55 -41 -19 -13 -40 -30 -47 -36 -9 -9 123 -12 565 -12 317 -1 595 -1 617
-1 l40 -1 0 -10137 -1 -10138 62 -40 c111 -71 219 -139 239 -151 16 -9 516
-324 990 -624 33 -21 173 -109 310 -196 138 -86 273 -172 300 -189 87 -56 202
-128 325 -205 66 -41 245 -154 397 -250 152 -96 282 -178 288 -182 8 -5 40 25
91 84 44 51 86 100 94 108 8 9 69 78 135 155 196 226 377 435 400 459 6 6 64
74 130 151 66 77 134 156 151 175 63 71 130 147 153 176 14 16 142 164 286
329 143 165 337 388 430 495 92 107 171 197 174 200 3 3 62 70 131 150 68 80
129 150 135 156 5 6 30 35 55 64 25 29 50 58 55 64 6 6 59 67 119 136 164 189
200 230 246 285 24 28 46 52 49 55 3 3 15 15 25 27 19 22 19 23 -8 63 -14 22
-31 40 -37 40 -5 0 -238 -82 -517 -181 -279 -100 -529 -189 -557 -199 -27 -10
-88 -31 -135 -47 -251 -89 -297 -105 -315 -113 -19 -8 -103 -38 -520 -184 -88
-31 -169 -61 -180 -66 -11 -4 -357 -128 -770 -275 -412 -147 -914 -325 -1115
-397 -201 -72 -419 -150 -485 -173 -66 -24 -185 -66 -265 -95 -80 -29 -154
-55 -165 -57 -11 -3 -25 -10 -32 -15 -6 -5 -13 -5 -16 -1 -2 4 -4 4628 -4
10276 l0 10267 46 1 c25 0 389 0 809 1 419 0 762 2 762 5 0 3 -31 65 -68 137
-38 72 -74 141 -80 154 -7 12 -16 30 -21 40 -4 9 -28 55 -53 102 -25 47 -85
162 -133 255 -48 94 -111 215 -140 270 -74 142 -178 340 -223 427 -37 72 -39
74 -68 66 -63 -17 -180 -19 -263 -4 -87 15 -221 72 -285 121 -18 14 -35 25
-37 24 -2 0 -33 -23 -69 -50z"/>
<path d="M29677 24683 c-3 -5 -16 -28 -29 -53 -14 -25 -40 -74 -60 -110 -19
-36 -59 -110 -88 -165 -29 -55 -60 -113 -70 -130 -9 -16 -41 -75 -70 -130 -29
-55 -65 -122 -80 -150 -15 -27 -50 -93 -78 -145 -27 -52 -93 -176 -147 -275
-53 -99 -109 -207 -125 -240 -16 -33 -42 -82 -58 -110 -16 -27 -28 -57 -27
-65 1 -8 6 -51 9 -95 4 -44 9 -93 11 -110 3 -16 7 -59 10 -95 3 -36 7 -78 9
-95 2 -16 7 -69 10 -117 4 -47 8 -94 10 -105 2 -10 7 -54 10 -98 4 -44 9 -91
11 -105 2 -14 6 -63 10 -110 4 -47 8 -98 10 -115 3 -16 7 -59 10 -95 3 -36 7
-81 10 -100 4 -36 10 -93 20 -215 3 -38 8 -83 10 -100 2 -16 7 -66 10 -110 3
-44 8 -91 10 -105 2 -14 7 -56 10 -95 13 -150 15 -171 19 -205 3 -19 8 -71 11
-115 4 -44 8 -87 10 -95 1 -8 6 -55 10 -105 13 -159 22 -253 30 -315 3 -19 7
-69 10 -110 3 -41 7 -86 10 -100 2 -14 7 -61 10 -105 3 -44 8 -93 10 -110 2
-16 7 -61 10 -100 3 -38 8 -88 10 -110 2 -22 7 -65 9 -95 15 -152 16 -169 31
-315 2 -22 7 -71 10 -110 3 -38 7 -81 10 -95 2 -14 7 -61 10 -105 3 -44 8 -91
10 -105 2 -14 6 -56 10 -95 3 -38 8 -91 11 -116 2 -25 6 -66 8 -90 8 -86 17
-184 21 -219 3 -19 7 -69 11 -110 3 -41 7 -92 9 -112 2 -21 6 -59 9 -85 3 -27
8 -77 11 -113 3 -36 8 -81 10 -100 2 -19 7 -69 10 -110 4 -41 8 -86 10 -100 2
-14 6 -61 10 -105 3 -44 8 -91 10 -105 2 -14 6 -56 10 -95 3 -38 8 -86 10
-105 7 -56 18 -193 17 -212 0 -10 3 -19 9 -19 11 -2 11 -2 79 -18 30 -7 81
-25 113 -39 l58 -25 26 29 c25 30 120 138 138 158 55 61 98 111 140 160 28 33
59 69 70 80 11 12 77 87 147 167 70 81 133 153 140 160 7 8 38 43 68 79 30 35
62 71 70 80 8 9 38 42 65 74 28 33 55 64 60 70 6 6 39 45 75 86 36 41 76 87
90 102 26 28 41 45 130 148 30 36 93 108 140 160 47 53 110 125 140 160 30 35
63 73 73 84 10 12 37 43 60 70 23 27 47 54 53 60 5 6 43 49 84 96 41 47 77 87
80 90 3 3 32 37 65 75 34 39 91 104 127 147 65 74 66 77 57 115 -5 21 -25 115
-44 208 -58 276 -143 630 -202 840 -14 50 -27 99 -29 110 -4 19 -24 92 -47
165 -6 19 -12 40 -13 45 -5 29 -115 377 -181 574 -102 305 -275 768 -380 1016
-14 33 -31 74 -38 90 -171 403 -434 951 -625 1300 -15 28 -45 82 -65 120 -33
61 -148 264 -182 320 -7 11 -16 27 -20 35 -4 8 -50 85 -102 170 -52 85 -110
181 -129 213 -36 59 -38 62 -45 50z"/>
<path d="M20990 24408 c-133 -85 -551 -348 -575 -362 -10 -6 -25 -15 -31 -21
-7 -5 -59 -38 -116 -73 -57 -35 -188 -117 -293 -183 -104 -66 -226 -143 -270
-170 -44 -28 -143 -90 -220 -139 -77 -49 -161 -102 -187 -117 -27 -15 -48 -31
-48 -34 0 -4 1004 -7 2232 -7 l2232 0 -54 50 c-30 28 -84 76 -120 107 -36 31
-72 63 -80 71 -8 9 -46 42 -85 75 -38 33 -72 63 -75 66 -3 3 -88 79 -190 169
-102 89 -201 177 -220 194 -19 18 -75 68 -125 111 -49 44 -92 82 -95 85 -3 3
-35 31 -72 63 -44 38 -72 56 -80 51 -7 -4 -37 -25 -65 -46 -92 -67 -237 -133
-353 -159 -82 -19 -134 -24 -250 -23 -276 2 -540 120 -728 327 -14 15 -28 27
-31 26 -3 0 -49 -28 -101 -61z"/>
<path d="M4260 23030 c-25 -8 -491 -137 -520 -145 -8 -2 -116 -31 -240 -65
-124 -35 -272 -75 -330 -91 -58 -15 -282 -77 -499 -137 l-393 -109 -29 -69
c-16 -38 -34 -78 -39 -89 -16 -35 -156 -395 -205 -530 -26 -71 -60 -164 -75
-205 -94 -254 -275 -840 -263 -850 4 -4 40 -30 78 -57 39 -27 185 -132 325
-233 140 -101 282 -203 315 -226 33 -24 128 -92 210 -151 83 -60 247 -178 365
-263 118 -85 311 -223 427 -307 117 -84 234 -168 260 -186 27 -19 102 -73 167
-120 l119 -86 36 32 c102 92 262 172 386 194 17 2 48 8 70 12 71 13 216 3 313
-22 l93 -23 70 120 c39 67 74 128 80 136 15 25 182 310 219 375 19 33 40 68
45 77 18 30 77 132 95 163 10 17 55 93 100 170 45 77 91 156 102 175 11 19 42
72 69 116 27 45 49 84 49 87 0 6 -200 355 -271 473 -27 45 -49 85 -49 89 0 4
-8 19 -19 33 -10 15 -29 47 -43 72 -14 25 -49 86 -78 135 -29 50 -63 108 -75
130 -13 22 -62 108 -110 190 -48 83 -97 168 -109 190 -13 22 -80 139 -150 260
-154 264 -255 441 -276 477 -162 285 -157 279 -220 258z"/>
<path d="M28560 22637 c-19 -34 -47 -82 -61 -107 -129 -223 -273 -472 -414
-715 -168 -290 -256 -443 -301 -522 -13 -23 -81 -140 -151 -260 -69 -120 -135
-234 -146 -253 -10 -19 -34 -60 -53 -91 -19 -31 -34 -62 -34 -68 0 -6 -4 -11
-10 -11 -5 0 -10 -5 -10 -10 0 -6 -20 -43 -43 -83 -24 -39 -139 -236 -254
-437 -116 -201 -223 -385 -237 -410 -49 -83 -61 -111 -51 -118 9 -6 71 -77
151 -172 12 -14 41 -48 65 -75 24 -28 69 -79 99 -115 30 -35 85 -98 121 -139
36 -42 108 -125 160 -186 52 -60 106 -123 121 -140 14 -16 57 -66 95 -110 38
-44 78 -91 90 -105 12 -14 30 -34 40 -46 10 -12 41 -48 69 -80 28 -32 156
-180 284 -329 224 -259 324 -375 345 -399 32 -36 258 -298 480 -556 56 -65
106 -114 115 -113 8 1 37 12 63 23 l49 22 -7 76 c-4 43 -8 93 -10 112 -1 19
-6 64 -9 100 -11 109 -15 142 -21 215 -3 39 -8 84 -10 100 -3 17 -7 62 -10
100 -8 100 -12 141 -19 215 -4 36 -9 85 -11 110 -2 25 -7 68 -9 95 -9 86 -25
247 -31 315 -3 36 -8 81 -10 100 -2 19 -7 67 -10 105 -6 66 -10 117 -20 210
-2 22 -6 69 -10 105 -3 36 -10 106 -15 155 -5 50 -12 122 -15 160 -3 39 -7 84
-9 100 -2 17 -7 66 -11 110 -4 44 -8 87 -10 95 -2 8 -6 51 -9 95 -3 44 -8 100
-11 125 -3 25 -7 68 -10 95 -2 28 -7 77 -11 110 -7 68 -9 85 -18 208 -4 48 -9
95 -11 105 -1 9 -6 55 -10 102 -3 47 -8 96 -10 110 -3 24 -8 69 -20 210 -3 36
-8 76 -10 90 -3 14 -7 59 -10 101 -3 41 -7 91 -9 110 -3 19 -7 66 -11 104 -3
39 -8 86 -10 105 -2 19 -7 67 -10 105 -3 39 -8 86 -10 105 -2 19 -6 64 -10
100 -3 36 -7 85 -10 110 -3 25 -7 72 -10 105 -7 82 -15 163 -20 205 -2 19 -7
64 -10 100 -13 151 -24 270 -30 315 -2 17 -7 71 -11 120 -3 50 -9 104 -13 122
l-6 32 -35 -62z"/>
<path d="M1576 20441 c-6 -8 -85 -322 -111 -436 -41 -181 -95 -427 -100 -457
-3 -18 -10 -51 -15 -73 -5 -22 -12 -56 -15 -75 -3 -19 -8 -42 -10 -50 -2 -8
-7 -31 -10 -50 -3 -19 -10 -57 -15 -85 -5 -27 -12 -66 -15 -85 -3 -19 -10 -60
-15 -90 -5 -30 -12 -68 -14 -85 -3 -16 -8 -45 -11 -62 -10 -62 -14 -88 -20
-133 -3 -25 -8 -52 -10 -60 -2 -8 -7 -40 -10 -70 -3 -30 -8 -62 -10 -70 -2 -8
-7 -44 -10 -80 -4 -36 -9 -72 -10 -81 -3 -15 -20 -153 -31 -254 -2 -22 -6 -60
-9 -85 -3 -25 -7 -74 -10 -110 -3 -36 -7 -83 -10 -105 -14 -128 -29 -325 -40
-545 -12 -238 -14 -286 -21 -525 l-6 -250 323 -129 c178 -71 338 -135 354
-142 17 -7 401 -161 855 -343 l825 -329 44 44 c53 53 161 109 241 125 56 11
58 12 65 48 3 20 22 99 40 177 33 135 38 158 50 222 3 15 11 45 17 67 5 22 12
51 15 65 2 14 8 41 13 60 12 47 148 633 154 662 2 13 9 43 16 68 7 25 14 52
15 62 2 9 31 134 65 279 33 144 59 263 58 264 -2 1 -23 13 -48 25 -234 118
-409 353 -455 610 -24 139 -2 366 45 461 33 65 36 55 -40 109 -39 27 -462 330
-499 357 -13 10 -94 68 -180 130 -86 61 -160 115 -166 120 -5 4 -21 16 -35 25
-20 13 -499 356 -575 412 -11 8 -40 30 -65 48 -25 18 -88 63 -140 100 -52 37
-106 75 -119 85 -13 10 -85 62 -160 115 -75 53 -140 101 -146 105 -21 18 -34
23 -39 14z"/>
<path d="M5755 20322 c-39 -64 -75 -128 -82 -142 -7 -14 -24 -43 -38 -65 -14
-22 -28 -47 -32 -55 -3 -8 -12 -22 -18 -30 -7 -8 -24 -35 -37 -60 -42 -75 -70
-123 -93 -160 -28 -44 -314 -536 -332 -570 -7 -14 -22 -36 -32 -50 l-20 -25
57 -60 c93 -99 113 -127 167 -240 155 -325 82 -711 -186 -973 l-52 -51 21 -33
c11 -18 34 -60 52 -92 17 -33 77 -141 132 -240 55 -100 116 -210 136 -246 19
-36 44 -81 55 -100 32 -57 167 -300 199 -360 17 -30 34 -59 38 -65 4 -5 26
-45 49 -89 37 -68 132 -242 218 -396 14 -25 41 -74 61 -110 19 -36 77 -139
127 -230 51 -91 109 -196 130 -235 21 -38 46 -83 55 -100 21 -34 54 -95 96
-175 16 -30 31 -57 34 -60 6 -6 13 -18 80 -145 29 -55 59 -107 66 -116 8 -8
14 -19 14 -22 0 -4 29 -58 64 -120 35 -61 78 -139 95 -172 18 -33 40 -73 50
-90 9 -16 48 -86 86 -155 37 -69 76 -138 85 -155 9 -16 45 -82 80 -145 35 -63
64 -116 65 -118 2 -2 45 3 96 11 150 21 302 -8 429 -83 l46 -27 59 54 c80 74
220 201 246 224 12 10 67 60 122 111 55 51 105 98 111 103 46 42 223 202 232
210 6 6 55 51 109 100 54 50 128 117 164 150 36 33 88 81 115 106 l49 45 -33
60 c-19 32 -79 138 -135 234 -56 96 -121 209 -145 250 -23 41 -50 89 -60 105
-10 17 -77 134 -150 260 -73 127 -142 246 -153 265 -11 19 -33 58 -49 85 -16
28 -38 66 -50 85 -11 19 -31 53 -43 75 -13 22 -71 123 -130 225 -59 102 -117
201 -127 220 -11 19 -80 139 -153 265 -149 258 -459 794 -485 840 -24 43 -120
208 -205 355 -40 69 -82 141 -92 160 -61 109 -218 379 -234 402 -11 15 -19 30
-19 32 0 3 -18 35 -40 71 -22 36 -40 67 -40 69 0 4 -74 134 -100 176 -10 16
-102 175 -130 225 -9 17 -40 68 -67 115 -27 47 -121 209 -208 360 -133 230
-242 418 -249 427 -1 1 -33 -50 -71 -115z"/>
<path d="M9249 19825 c0 -27 -1 -1101 -1 -2385 l0 -2336 58 -60 c33 -34 142
-148 244 -254 102 -106 216 -224 254 -264 37 -39 143 -149 234 -244 146 -152
167 -170 181 -158 26 22 131 71 201 94 101 33 186 44 299 40 l104 -3 25 70
c28 81 240 698 252 735 10 30 206 601 360 1050 150 438 177 515 248 725 34 99
75 221 93 270 17 50 64 187 105 305 40 118 94 276 119 350 26 74 78 225 115
335 38 110 114 333 170 495 110 319 219 639 271 790 17 52 56 163 84 245 29
83 59 173 68 200 l14 50 -1748 0 -1749 0 -1 -50z"/>
<path d="M20380 19868 c0 -3 43 -118 95 -255 53 -136 138 -358 190 -493 51
-135 112 -292 135 -350 23 -58 42 -109 44 -115 2 -10 39 -108 61 -160 7 -16
97 -250 199 -520 103 -269 191 -499 196 -510 5 -11 50 -128 100 -260 50 -132
95 -249 100 -260 5 -11 20 -49 33 -85 34 -93 137 -361 148 -385 8 -19 156
-402 204 -530 22 -60 236 -617 280 -730 13 -33 60 -154 104 -270 196 -512 222
-581 231 -600 5 -11 63 -162 129 -335 166 -437 151 -401 173 -394 53 16 210
11 315 -12 29 -6 33 -3 46 27 8 19 78 162 155 319 140 286 300 614 460 940 81
165 97 218 77 250 -3 5 -1 11 5 15 7 4 10 777 10 2363 l0 2357 -1745 0 c-960
0 -1745 -3 -1745 -7z"/>
<path d="M26582 19213 c-27 -49 -132 -230 -232 -403 -100 -173 -194 -335 -208
-360 -14 -25 -44 -76 -67 -115 -22 -38 -44 -77 -48 -85 -4 -8 -17 -31 -28 -50
-33 -55 -199 -340 -227 -390 -14 -25 -55 -97 -92 -160 -68 -117 -431 -746
-467 -810 -11 -19 -36 -62 -56 -95 -42 -73 -72 -125 -133 -230 -25 -44 -63
-109 -83 -145 -21 -36 -140 -243 -266 -460 -339 -587 -365 -633 -362 -636 2
-2 30 4 62 12 33 9 67 17 75 19 8 2 80 20 160 40 80 20 154 39 165 41 11 2 83
20 160 39 77 20 151 38 165 41 14 3 41 9 60 14 19 5 38 10 42 10 4 1 22 6 40
11 18 6 44 12 57 15 14 3 167 41 340 85 174 44 325 82 336 84 11 2 20 4 20 5
0 1 7 3 15 5 8 1 143 35 299 74 156 39 293 73 305 76 12 2 22 4 24 6 1 1 5 2
10 3 4 1 30 8 58 15 29 7 58 13 65 14 8 2 20 6 27 10 6 5 12 6 12 3 0 -2 15 0
33 5 17 6 43 12 57 15 14 3 34 8 45 11 11 4 25 8 30 9 6 1 28 6 50 12 22 6 51
13 65 16 14 2 57 13 95 24 39 11 73 20 78 21 4 0 8 1 10 2 1 0 11 2 22 4 40 8
1311 326 1343 336 31 10 32 13 32 63 0 95 52 255 110 341 11 17 20 33 20 36 0
6 -10 19 -88 109 -75 87 -126 146 -143 166 -19 24 -283 328 -354 409 -29 33
-71 83 -95 110 -83 98 -135 158 -150 174 -8 9 -37 43 -65 76 -27 33 -52 62
-55 65 -3 3 -32 36 -65 75 -33 38 -72 83 -86 100 -131 149 -268 307 -390 450
-80 94 -193 224 -250 290 -57 66 -113 131 -124 144 -11 13 -32 37 -47 55 -15
17 -76 88 -135 158 -60 69 -111 127 -114 127 -4 1 -29 -38 -57 -86z"/>
<path d="M20311 16840 l-1 -2406 182 -99 c100 -55 209 -115 242 -133 54 -29
89 -49 221 -122 17 -9 111 -61 210 -115 99 -54 192 -106 207 -117 14 -10 33
-18 41 -18 8 0 20 -7 27 -15 7 -8 16 -15 20 -15 3 0 58 -29 121 -63 63 -35
141 -79 174 -97 33 -18 78 -43 100 -55 80 -44 161 -88 225 -123 36 -19 100
-55 143 -79 43 -24 82 -43 87 -41 4 2 35 28 67 58 70 65 114 100 125 100 4 0
8 6 8 14 0 7 -106 289 -236 627 -130 338 -247 641 -259 674 -41 109 -425 1110
-435 1130 -5 11 -97 252 -205 535 -109 283 -222 578 -252 655 -30 77 -59 151
-63 165 -5 14 -54 142 -110 285 -56 143 -102 265 -104 270 -2 6 -8 24 -15 40
-6 17 -91 237 -187 490 -97 253 -180 469 -185 480 -5 11 -36 92 -70 180 -33
88 -65 169 -69 180 -5 11 -9 -1062 -9 -2385z"/>
<path d="M12781 19088 c-11 -35 -56 -169 -101 -298 -45 -129 -94 -275 -111
-325 -16 -49 -32 -97 -36 -105 -3 -8 -7 -19 -9 -25 -1 -5 -25 -75 -53 -155
-84 -245 -249 -724 -321 -935 -37 -110 -114 -333 -170 -495 -56 -162 -103
-299 -104 -305 -2 -5 -6 -17 -9 -25 -3 -8 -15 -42 -26 -75 -11 -33 -56 -166
-101 -295 -45 -129 -83 -242 -85 -250 -3 -8 -16 -46 -29 -85 -14 -38 -79 -230
-146 -425 -209 -611 -240 -701 -297 -865 -30 -88 -61 -178 -68 -200 -7 -22
-16 -48 -20 -57 -4 -11 -3 -18 4 -18 30 0 174 -117 241 -197 83 -97 144 -222
178 -363 l8 -35 642 -3 641 -2 -1 2800 c-1 1540 -3 2800 -4 2800 -2 0 -12 -28
-23 -62z"/>
<path d="M31821 18994 c-13 -16 -49 -58 -81 -94 -32 -36 -252 -288 -490 -560
-237 -272 -444 -509 -458 -525 -15 -17 -56 -64 -92 -105 -36 -41 -81 -93 -101
-115 -32 -35 -215 -245 -388 -444 -31 -36 -63 -72 -71 -81 -8 -9 -42 -47 -75
-85 -33 -39 -74 -86 -92 -105 -39 -43 -73 -87 -73 -93 0 -2 15 -30 33 -60 76
-125 110 -302 88 -446 -15 -93 -60 -211 -109 -281 l-38 -55 190 -240 c188
-239 319 -404 396 -500 44 -56 270 -341 430 -544 58 -73 152 -193 210 -266 58
-73 170 -215 251 -316 80 -101 212 -269 295 -373 l149 -188 12 63 c25 133 57
325 78 459 15 99 17 114 35 245 6 44 13 91 15 105 2 14 7 50 10 80 3 30 8 66
10 80 2 14 6 50 10 80 3 30 8 71 10 90 2 19 6 58 9 85 3 28 8 73 11 100 3 28
8 79 10 115 5 74 15 188 20 240 3 30 12 164 20 310 13 217 19 504 19 875 0
444 -8 717 -29 995 -6 82 -11 150 -20 280 -3 47 -8 101 -10 120 -2 19 -7 67
-10 105 -4 39 -8 84 -11 100 -2 17 -6 59 -9 95 -3 36 -8 76 -10 90 -3 14 -7
49 -10 77 -2 29 -7 65 -9 80 -3 16 -7 51 -11 78 -5 42 -26 191 -40 285 -22
149 -39 247 -45 259 -5 10 -13 6 -29 -15z"/>
<path d="M4739 17689 c-84 -22 -130 -28 -201 -29 l-57 0 -12 -42 c-6 -24 -13
-50 -14 -58 -2 -8 -9 -37 -15 -65 -6 -27 -13 -57 -15 -65 -2 -8 -11 -46 -20
-85 -9 -38 -18 -77 -20 -85 -2 -8 -10 -45 -19 -81 -8 -37 -17 -78 -20 -90 -3
-13 -19 -82 -36 -154 -17 -71 -32 -139 -34 -150 -2 -11 -16 -67 -30 -125 -32
-134 -153 -657 -159 -690 -3 -14 -10 -45 -17 -70 -7 -25 -14 -56 -17 -69 -2
-13 -10 -50 -18 -83 l-13 -58 26 -14 c35 -18 115 -99 133 -134 8 -15 17 -29
20 -32 3 -3 16 -32 29 -65 16 -43 23 -86 26 -154 1 -51 6 -97 11 -101 4 -4 64
-37 133 -72 69 -36 188 -98 265 -138 77 -40 205 -106 285 -147 80 -42 186 -97
235 -123 50 -26 171 -89 270 -140 99 -51 232 -120 295 -153 154 -80 323 -168
505 -262 83 -43 195 -101 250 -130 55 -29 151 -78 213 -110 l113 -58 35 34 35
35 -94 170 c-51 93 -107 194 -124 224 -16 30 -50 91 -75 135 -25 44 -64 116
-88 160 -24 44 -52 96 -63 115 -11 19 -33 60 -50 90 -16 30 -47 84 -67 120
-20 36 -54 97 -75 135 -21 39 -94 171 -163 295 -68 124 -138 250 -155 280 -16
30 -62 114 -102 185 -40 72 -89 162 -110 200 -21 39 -91 165 -155 280 -64 116
-133 239 -152 275 -20 36 -65 118 -102 183 -36 64 -84 152 -107 195 -23 42
-49 91 -59 107 -10 17 -30 53 -45 80 -30 55 -162 293 -202 365 -14 25 -41 74
-61 110 -19 36 -37 67 -41 71 -3 3 -36 -3 -72 -12z"/>
<path d="M1055 16043 c9 -293 18 -488 30 -653 3 -36 7 -103 10 -150 3 -47 8
-105 10 -130 3 -25 7 -72 10 -105 6 -76 15 -169 21 -220 11 -93 13 -113 19
-165 3 -30 7 -71 10 -90 2 -19 7 -57 10 -85 4 -27 8 -62 11 -76 2 -15 6 -47 9
-70 3 -24 8 -55 10 -69 2 -14 11 -74 20 -135 9 -60 23 -150 31 -200 8 -49 17
-103 20 -120 8 -55 35 -199 44 -242 6 -22 12 -58 16 -80 3 -21 12 -67 19 -103
8 -36 26 -119 40 -186 14 -66 28 -131 30 -145 35 -184 270 -1059 284 -1059 5
1 78 124 187 319 17 31 56 99 86 151 72 124 133 230 157 273 10 18 54 94 96
168 43 74 89 154 103 179 26 46 199 349 410 715 63 110 123 214 132 230 9 17
44 77 77 135 33 58 152 267 265 464 l205 359 -33 44 c-38 50 -70 117 -81 171
-4 20 -8 40 -9 45 -1 4 -2 29 -3 56 l-1 49 -212 85 c-788 317 -2020 807 -2029
807 -6 0 -8 -59 -4 -167z"/>
<path d="M28685 16069 c-16 -5 -39 -11 -50 -13 -11 -2 -40 -9 -65 -16 -25 -7
-52 -14 -60 -15 -8 -2 -89 -22 -180 -45 -91 -23 -173 -44 -183 -46 -10 -2 -27
-6 -37 -9 -10 -3 -28 -8 -39 -10 -38 -9 -54 -13 -301 -75 -135 -34 -253 -64
-263 -66 -10 -2 -27 -6 -37 -9 -10 -3 -28 -8 -39 -10 -35 -8 -22 -5 -1341
-335 -707 -177 -1292 -323 -1300 -325 -8 -2 -89 -22 -180 -45 -91 -23 -174
-44 -185 -46 -11 -2 -47 -11 -80 -19 -33 -9 -67 -17 -75 -19 -8 -2 -33 -9 -56
-15 l-41 -11 14 -82 c7 -46 16 -103 18 -128 3 -25 8 -52 10 -60 2 -8 14 -78
25 -155 21 -136 25 -165 35 -222 6 -39 23 -150 30 -198 7 -46 9 -57 29 -185 8
-52 17 -113 21 -135 3 -22 10 -69 16 -105 5 -36 12 -76 14 -90 2 -14 6 -43 9
-65 4 -22 8 -51 11 -65 2 -14 7 -43 10 -65 3 -22 10 -69 16 -105 5 -36 12 -78
14 -95 6 -39 16 -104 21 -130 2 -11 6 -38 9 -60 3 -22 7 -49 9 -61 2 -12 7
-45 11 -75 4 -30 8 -55 9 -56 3 -3 55 -11 116 -18 30 -4 71 -8 90 -11 19 -2
60 -6 90 -9 30 -3 71 -7 90 -10 55 -7 214 -25 275 -31 17 -1 48 -5 70 -8 34
-4 106 -12 365 -41 25 -3 65 -8 90 -10 25 -3 63 -7 85 -10 22 -3 63 -7 90 -10
28 -3 66 -7 85 -10 19 -3 62 -7 95 -11 33 -3 71 -7 85 -9 14 -2 48 -6 75 -9
28 -3 88 -10 135 -16 47 -5 108 -12 135 -15 48 -4 110 -11 185 -20 19 -2 60
-7 90 -10 60 -6 103 -11 165 -19 22 -3 65 -8 95 -11 52 -5 93 -9 185 -20 57
-7 107 -12 220 -25 55 -6 116 -13 136 -16 l36 -4 29 72 c119 297 396 495 719
514 44 3 83 8 86 12 5 6 46 174 63 257 3 11 14 61 26 110 22 90 25 104 35 160
4 17 10 41 15 55 5 14 11 39 14 55 2 17 13 68 25 115 11 47 48 202 81 345 33
143 80 346 105 450 24 105 65 276 89 380 24 105 56 242 71 305 15 63 28 122
30 130 8 39 67 289 74 318 9 32 8 33 -62 78 -87 56 -174 145 -217 219 -33 57
-36 59 -85 44z"/>
<path d="M29610 15754 c-53 -24 -128 -43 -195 -50 -33 -3 -65 -7 -71 -9 -7 -2
-19 -39 -29 -82 -9 -43 -30 -134 -47 -203 -17 -69 -32 -136 -35 -150 -2 -14
-15 -68 -28 -120 -13 -52 -37 -156 -54 -230 -17 -74 -44 -191 -60 -260 -48
-204 -122 -524 -126 -543 -2 -10 -6 -26 -9 -35 -3 -9 -7 -28 -10 -42 -4 -22
-29 -128 -72 -309 -17 -70 -22 -93 -30 -131 -3 -14 -19 -81 -35 -150 -17 -69
-32 -132 -34 -140 -2 -8 -13 -58 -25 -110 -12 -52 -23 -102 -25 -110 -1 -8 -8
-35 -15 -59 -6 -23 -10 -44 -8 -46 2 -1 30 -17 63 -35 115 -63 211 -150 285
-256 27 -40 50 -77 50 -82 0 -24 26 -31 70 -17 74 22 134 39 630 175 261 72
498 138 525 146 28 8 190 53 360 100 171 46 333 91 360 99 93 27 329 92 450
125 66 18 123 34 127 37 6 3 -79 117 -170 228 -10 11 -42 52 -72 90 -30 38
-60 77 -67 85 -7 8 -96 121 -198 250 -102 129 -191 242 -198 250 -32 39 -207
260 -237 300 -46 59 -60 77 -91 114 -14 17 -110 139 -214 271 -208 263 -206
260 -220 278 -6 7 -60 75 -120 152 -61 77 -118 149 -127 160 -9 11 -71 89
-137 173 -66 83 -122 152 -123 152 -2 -1 -19 -8 -38 -16z"/>
<path d="M4097 14922 c-10 -10 -17 -23 -17 -29 0 -6 25 -77 56 -159 31 -82 69
-183 84 -224 15 -41 60 -160 99 -265 79 -209 80 -212 82 -223 0 -4 5 -15 11
-25 5 -10 22 -52 37 -95 15 -42 66 -176 111 -297 46 -121 104 -276 130 -345
174 -466 175 -470 192 -470 10 0 41 9 70 19 29 11 168 56 308 101 140 45 280
90 310 100 83 28 594 194 600 195 4 1 358 115 497 160 7 2 12 27 12 67 0 35 5
86 10 113 7 37 6 53 -2 61 -7 7 -88 51 -182 99 -93 48 -210 109 -260 135 -49
26 -162 85 -250 130 -88 45 -209 108 -270 140 -60 32 -177 92 -260 135 -82 43
-190 99 -240 125 -49 26 -175 91 -280 145 -104 54 -230 119 -280 145 -49 26
-171 89 -270 140 -99 51 -199 103 -223 116 -51 29 -54 29 -75 6z"/>
<path d="M8915 14684 c-99 -91 -214 -197 -255 -234 -41 -37 -88 -80 -105 -95
-84 -77 -236 -216 -289 -265 -33 -30 -65 -59 -72 -65 -6 -5 -57 -52 -113 -104
-56 -52 -118 -108 -138 -126 l-37 -32 26 -55 c15 -31 32 -74 38 -97 l11 -41
142 -1 c78 0 347 -2 597 -4 250 -2 605 -5 789 -6 l334 -3 4 25 c10 72 72 220
122 293 l29 41 -117 121 c-64 66 -208 217 -321 334 -113 117 -263 273 -335
346 l-130 133 -180 -165z"/>
<path d="M3649 14767 c-13 -23 -28 -50 -34 -59 -5 -9 -17 -29 -26 -45 -8 -15
-124 -217 -256 -449 -133 -232 -250 -436 -261 -455 -11 -19 -72 -126 -137
-239 -65 -113 -126 -219 -136 -236 -9 -18 -72 -127 -139 -244 -67 -117 -130
-226 -139 -244 -10 -17 -49 -85 -88 -152 -38 -66 -73 -127 -77 -135 -4 -8 -12
-23 -19 -34 -7 -11 -53 -92 -103 -180 -51 -88 -101 -176 -112 -195 -103 -174
-144 -250 -135 -250 4 0 85 25 178 55 94 31 231 76 305 100 399 129 741 240
865 280 77 26 145 48 150 49 6 2 17 6 25 9 8 3 78 25 155 50 150 48 716 231
851 276 l82 26 -60 160 c-33 88 -72 194 -88 235 -45 123 -409 1093 -430 1145
-10 26 -58 153 -106 280 -20 55 -48 129 -61 165 -14 36 -29 77 -35 93 -8 22
-16 27 -46 28 -21 0 -51 2 -68 4 -27 4 -33 0 -55 -38z"/>
<path d="M23887 14468 c-25 -51 -118 -241 -207 -423 -89 -181 -188 -384 -220
-449 l-58 -119 82 -82 c45 -46 100 -114 124 -154 49 -83 97 -219 107 -303 4
-32 10 -57 14 -56 7 2 198 -17 266 -27 17 -2 57 -7 90 -10 33 -3 75 -8 93 -10
l33 -5 -6 42 c-4 24 -9 59 -11 78 -3 19 -7 42 -9 50 -2 8 -7 35 -10 60 -3 25
-8 56 -10 70 -5 28 -75 483 -80 515 -5 35 -16 109 -21 140 -8 48 -12 75 -24
160 -7 44 -14 89 -16 100 -2 11 -7 40 -10 65 -3 25 -8 54 -10 65 -2 11 -7 40
-10 65 -3 25 -7 52 -9 60 -2 8 -7 38 -11 65 -3 28 -8 59 -11 70 -2 11 -7 44
-10 73 -3 28 -9 52 -13 52 -5 0 -28 -42 -53 -92z"/>
<path d="M20310 11498 l0 -2613 59 95 c67 106 140 226 156 252 25 44 303 489
335 538 20 30 40 62 43 70 6 13 390 631 417 670 5 8 96 155 201 325 293 474
319 515 366 590 25 39 99 158 165 265 66 107 171 276 232 374 l112 179 -44 45
c-176 181 -255 468 -198 715 9 38 16 72 16 76 0 7 -305 180 -360 204 -8 4 -28
15 -45 25 -34 21 -111 64 -205 115 -56 30 -218 119 -395 217 -110 61 -354 195
-415 227 -36 20 -69 39 -75 43 -5 4 -50 29 -100 55 -71 38 -204 111 -257 142
-5 2 -8 -1172 -8 -2609z"/>
<path d="M7975 13270 c-3 -8 -6 -19 -6 -25 -5 -25 -61 -140 -90 -181 -27 -40
-105 -122 -154 -162 -36 -30 -170 -91 -235 -107 -259 -63 -534 41 -693 263
-17 23 -36 41 -41 39 -6 -3 -153 -50 -326 -107 -456 -148 -676 -219 -755 -245
-38 -12 -212 -69 -385 -125 -173 -56 -316 -103 -317 -104 -1 -1 5 -20 13 -41
8 -22 17 -47 20 -55 3 -8 140 -373 304 -810 249 -663 301 -795 317 -794 10 0
36 4 58 8 83 16 308 15 395 0 161 -29 320 -93 463 -188 51 -34 71 -50 134
-109 l32 -30 188 146 c103 81 193 150 198 154 6 5 111 87 235 183 124 96 232
180 240 187 20 16 428 332 461 358 88 66 375 290 379 295 3 4 23 20 45 36 48
35 488 376 495 383 5 6 41 33 176 137 62 47 443 344 464 361 8 7 88 69 178
138 l162 126 -14 27 c-16 32 -61 163 -71 210 -5 26 -11 32 -33 33 -15 0 -299
2 -632 5 -333 3 -739 6 -902 7 -261 3 -299 1 -303 -13z"/>
<path d="M11519 13225 c-51 -201 -146 -355 -293 -478 -34 -28 -60 -56 -58 -63
2 -10 189 -426 277 -619 13 -27 56 -122 95 -210 40 -88 88 -193 106 -233 19
-41 34 -75 34 -78 0 -2 15 -36 34 -76 19 -40 57 -125 86 -188 28 -63 60 -133
70 -155 18 -39 52 -114 185 -410 37 -82 83 -183 101 -223 19 -41 34 -75 34
-77 0 -2 19 -43 41 -92 23 -48 58 -126 79 -173 21 -47 52 -116 70 -155 18 -38
61 -135 97 -215 36 -80 76 -170 90 -200 75 -163 121 -267 149 -330 10 -24 35
-78 55 -120 l36 -75 -1 2103 -1 2104 -638 1 -638 2 -10 -40z"/>
<path d="M31635 12974 c-22 -7 -166 -47 -320 -89 -154 -42 -293 -81 -310 -86
-36 -11 -244 -69 -265 -74 -12 -3 -115 -31 -225 -62 -120 -34 -594 -165 -606
-168 -8 -2 -74 -20 -145 -40 -71 -20 -136 -38 -144 -40 -47 -10 -414 -116
-418 -119 -2 -3 -6 -49 -7 -103 -6 -165 -57 -318 -149 -447 -49 -68 -137 -158
-185 -189 -18 -11 -30 -25 -27 -31 25 -61 139 -325 196 -456 40 -91 86 -196
102 -235 28 -66 41 -93 87 -197 10 -24 31 -71 45 -105 14 -35 37 -86 50 -115
13 -29 44 -100 69 -158 50 -118 111 -257 232 -535 46 -104 120 -275 165 -380
45 -104 88 -203 96 -220 7 -16 40 -93 74 -170 33 -77 66 -152 73 -167 6 -16
14 -28 17 -28 4 0 16 19 28 43 12 23 37 69 55 102 133 233 437 828 437 854 0
6 5 11 10 11 6 0 10 8 10 18 0 10 4 22 9 28 14 14 289 630 307 689 2 6 39 98
82 205 171 423 406 1116 505 1485 3 11 23 85 45 165 59 216 153 602 150 615
-2 9 -13 9 -43 -1z"/>
<path d="M9780 12524 c-173 -134 -326 -253 -340 -264 -32 -24 -1229 -955
-1575 -1224 -143 -112 -283 -220 -311 -242 -133 -102 -631 -491 -647 -505 -18
-16 -17 -20 21 -100 87 -182 121 -336 117 -537 -1 -70 -5 -137 -9 -149 -8 -26
-3 -29 77 -53 34 -10 166 -50 292 -88 127 -39 307 -93 400 -122 94 -28 226
-69 295 -90 69 -21 141 -43 160 -48 19 -6 103 -31 185 -56 83 -26 195 -61 250
-77 55 -17 120 -37 144 -45 25 -8 48 -14 51 -14 4 0 20 19 35 43 106 160 313
272 511 276 27 1 32 6 43 43 7 23 14 48 16 57 5 22 131 515 162 631 13 52 27
106 29 120 3 14 10 43 16 65 6 22 12 45 14 50 1 6 14 57 29 115 15 58 28 112
30 120 2 8 19 76 39 150 19 74 60 232 90 350 30 118 98 386 151 595 53 209 99
387 101 395 1 8 26 103 54 210 28 107 53 203 55 213 2 10 18 73 35 140 18 67
32 126 33 131 1 5 -7 14 -18 20 -70 38 -135 79 -165 106 -19 16 -39 30 -45 30
-5 0 -152 -111 -325 -246z"/>
<path d="M23680 12582 c0 -55 -137 -269 -213 -332 -17 -14 -15 -19 31 -95 52
-84 442 -738 472 -790 10 -16 73 -121 140 -233 98 -163 125 -202 139 -196 9 4
67 25 129 47 l113 40 -7 41 c-3 23 -8 48 -9 56 -2 8 -8 51 -15 95 -12 88 -18
121 -25 163 -2 15 -11 74 -20 132 -9 58 -22 146 -30 195 -8 50 -21 135 -30
190 -8 55 -24 156 -35 225 -11 69 -22 143 -25 165 -4 22 -8 49 -9 60 -2 11 -9
59 -16 108 -12 77 -16 87 -34 88 -12 0 -30 2 -41 4 -11 2 -45 7 -75 10 -111
12 -137 14 -217 24 -206 25 -223 25 -223 3z"/>
<path d="M10850 12569 c-19 -5 -80 -11 -135 -13 l-100 -4 -13 -43 c-7 -24 -14
-53 -17 -64 -3 -11 -14 -56 -25 -100 -12 -44 -23 -87 -25 -95 -2 -8 -38 -150
-80 -315 -42 -165 -78 -307 -80 -316 -2 -8 -10 -39 -19 -67 -8 -29 -15 -53
-14 -55 0 -1 -5 -22 -12 -47 -7 -25 -13 -52 -15 -60 -2 -8 -11 -44 -20 -80 -9
-36 -18 -72 -20 -80 -2 -8 -19 -76 -39 -150 -19 -74 -71 -279 -116 -455 -45
-176 -99 -389 -121 -473 -22 -85 -42 -161 -44 -170 -2 -10 -24 -98 -50 -197
-52 -203 -47 -183 -75 -290 -11 -44 -23 -91 -26 -105 -3 -13 -16 -66 -30 -118
-13 -52 -24 -99 -24 -106 0 -6 23 -24 51 -41 126 -75 248 -247 274 -388 4 -20
12 -37 19 -38 6 0 19 -2 30 -4 10 -2 73 -6 140 -10 66 -3 146 -8 176 -10 116
-8 258 -16 330 -20 41 -2 120 -7 175 -10 55 -3 141 -8 190 -10 50 -3 127 -7
173 -10 45 -3 121 -7 170 -10 48 -3 119 -7 157 -10 39 -3 115 -7 170 -10 55
-3 132 -8 170 -10 39 -3 117 -7 175 -10 58 -3 134 -7 170 -10 36 -2 119 -6
185 -10 66 -3 141 -8 168 -10 26 -3 47 -2 47 1 0 4 -16 40 -35 81 -19 41 -35
76 -35 79 0 2 -16 38 -36 81 -19 43 -44 96 -54 118 -10 22 -29 65 -43 95 -14
30 -35 78 -47 105 -12 28 -44 97 -70 155 -26 58 -89 197 -140 310 -51 113
-106 234 -122 270 -17 36 -47 103 -68 150 -21 47 -60 135 -88 195 -27 61 -59
130 -70 155 -17 38 -252 559 -327 725 -23 50 -160 355 -372 825 -63 140 -130
287 -147 325 -18 39 -43 94 -57 124 -84 190 -106 235 -115 237 -5 1 -25 -2
-44 -7z"/>
<path d="M24555 12500 c-2 -4 -2 -18 0 -31 3 -13 7 -41 10 -64 3 -22 11 -67
16 -100 6 -33 13 -76 15 -95 3 -19 11 -75 19 -125 7 -49 16 -106 19 -125 12
-80 18 -120 31 -205 8 -49 17 -108 20 -130 7 -44 34 -215 40 -255 2 -14 11
-70 20 -125 8 -55 17 -111 19 -125 3 -14 5 -32 5 -41 1 -13 15 -16 84 -16 438
2 854 -200 1139 -553 126 -156 249 -423 282 -610 24 -138 33 -309 21 -417 -3
-29 -3 -53 0 -53 5 0 192 -42 360 -81 50 -11 99 -23 110 -25 11 -2 29 -6 41
-8 11 -2 49 -11 85 -20 35 -9 96 -23 134 -31 39 -8 120 -26 180 -41 61 -14
121 -28 135 -30 14 -3 33 -7 42 -10 23 -7 59 -15 83 -19 11 -1 38 -8 60 -13
22 -6 52 -14 68 -17 15 -3 37 -7 50 -10 12 -3 31 -7 43 -9 11 -2 49 -11 85
-20 99 -24 321 -75 349 -80 14 -2 52 -11 85 -19 33 -9 71 -18 85 -21 14 -2
126 -27 250 -56 124 -28 236 -53 250 -56 14 -3 50 -11 80 -19 30 -8 71 -17 90
-20 19 -3 43 -8 52 -11 9 -3 25 -7 35 -9 25 -5 358 -81 463 -106 47 -11 94
-21 105 -23 11 -2 38 -9 60 -14 94 -25 107 -23 85 16 -5 9 -59 134 -121 277
-61 143 -122 283 -134 310 -13 28 -35 79 -50 115 -15 36 -36 85 -47 110 -33
73 -42 95 -169 387 -66 153 -126 292 -134 308 -7 17 -24 56 -39 88 -14 32 -26
59 -26 62 0 2 -16 38 -35 79 -19 42 -35 78 -35 80 0 6 -398 917 -402 921 -2 1
-25 -1 -53 -5 -78 -13 -234 -11 -297 4 -32 7 -58 11 -58 8 0 -3 -5 -1 -12 6
-7 7 -20 12 -29 12 -34 0 -197 91 -264 147 -157 132 -267 327 -290 514 -4 30
-10 57 -13 61 -4 4 -34 10 -67 13 -33 4 -71 8 -85 10 -14 2 -56 7 -95 11 -38
3 -77 8 -85 9 -8 2 -42 6 -75 9 -33 4 -80 9 -105 12 -25 2 -65 7 -90 9 -25 3
-63 7 -85 10 -22 3 -62 7 -90 10 -27 3 -66 7 -85 10 -19 2 -59 7 -87 10 -82 8
-154 16 -173 20 -9 2 -50 6 -91 10 -41 3 -85 8 -99 10 -14 2 -50 6 -80 10 -30
3 -71 7 -90 10 -39 5 -96 11 -185 20 -33 4 -71 8 -85 10 -14 2 -54 6 -90 10
-36 4 -76 8 -90 10 -14 2 -47 6 -75 9 -27 3 -72 8 -100 12 -27 3 -66 7 -85 9
-19 2 -60 6 -90 9 -30 4 -71 9 -90 11 -19 2 -60 7 -90 10 -30 3 -66 8 -80 10
-14 2 -52 7 -85 10 -33 3 -73 7 -90 9 -16 3 -61 8 -100 11 -38 4 -94 11 -123
15 -29 4 -55 4 -57 0z"/>
<path d="M4625 12405 c-38 -13 -225 -74 -415 -135 -190 -61 -383 -124 -430
-140 -47 -15 -206 -67 -355 -115 -148 -48 -308 -100 -355 -115 -47 -16 -213
-70 -370 -120 -157 -51 -364 -118 -460 -150 l-175 -57 98 -47 c54 -25 100 -46
102 -46 1 0 45 -20 96 -44 52 -24 263 -121 469 -214 361 -164 896 -407 1010
-459 30 -14 73 -33 95 -43 22 -10 75 -34 118 -54 42 -20 79 -36 81 -36 2 0 53
-23 112 -51 60 -28 179 -83 264 -121 85 -39 203 -93 262 -119 59 -27 111 -49
115 -49 5 0 19 17 33 38 14 20 29 42 35 48 5 7 25 30 43 53 33 40 86 93 147
146 32 28 171 122 189 128 10 3 -58 192 -347 957 -105 276 -121 320 -181 485
-20 55 -40 109 -45 120 -5 11 -22 53 -37 93 -15 39 -28 72 -28 71 -1 0 -32
-11 -71 -24z"/>
<path d="M22620 12068 c-8 -13 -20 -32 -26 -43 -6 -11 -30 -49 -52 -85 -23
-36 -68 -110 -102 -165 -69 -114 -219 -355 -249 -400 -19 -29 -262 -421 -530
-855 -141 -227 -162 -261 -203 -325 -14 -22 -67 -107 -118 -190 -51 -82 -138
-222 -193 -310 -126 -202 -135 -217 -144 -235 -4 -8 -11 -19 -15 -25 -5 -5
-101 -158 -213 -340 -112 -181 -213 -343 -224 -360 -79 -124 -79 -125 -11
-104 19 5 42 12 51 14 18 4 218 56 504 131 321 85 360 95 380 100 11 2 97 24
190 49 94 25 177 47 185 49 8 2 35 9 60 16 25 7 52 14 60 15 8 2 40 10 70 18
84 23 523 138 540 142 8 2 119 31 245 65 127 34 239 63 250 66 11 2 92 23 180
47 l160 42 -5 55 c-3 30 -4 123 -3 205 2 166 21 281 73 438 31 91 110 258 136
288 8 8 14 19 14 23 0 4 28 44 62 89 69 90 165 191 245 256 l52 42 -55 90
c-29 49 -54 92 -54 95 0 3 -13 25 -30 49 -16 24 -30 46 -30 50 0 3 -9 18 -19
33 -11 15 -148 243 -306 508 l-286 481 -63 -18 c-81 -22 -144 -30 -227 -30
-63 0 -195 22 -246 42 -34 13 -36 12 -53 -13z"/>
<path d="M1915 11308 c50 -160 326 -864 429 -1093 13 -27 61 -133 107 -235 88
-196 327 -681 401 -815 25 -44 66 -120 93 -170 81 -152 201 -360 334 -578 69
-114 131 -215 136 -225 91 -150 395 -602 405 -602 5 0 15 8 22 18 12 17 121
141 173 196 11 12 54 60 95 106 41 47 94 105 116 130 79 86 96 105 149 165 29
33 62 69 72 81 10 11 48 54 85 95 37 41 75 84 85 95 10 12 53 59 95 105 42 46
85 93 95 105 10 12 47 53 82 93 126 141 120 133 105 149 -29 29 -106 143 -141
209 -48 91 -77 171 -105 284 -32 133 -32 382 0 513 12 49 21 90 20 92 -4 3
-134 63 -253 117 -130 58 -201 91 -303 138 -46 22 -85 39 -87 39 -2 0 -42 18
-90 41 -48 22 -110 51 -139 63 -66 30 -151 69 -254 117 -45 22 -84 39 -86 39
-3 0 -40 16 -83 36 -102 48 -280 129 -473 216 -85 38 -192 87 -238 109 -46 21
-85 39 -87 39 -2 0 -51 23 -110 50 -59 28 -108 50 -110 50 -2 0 -45 20 -97 44
-51 23 -160 74 -243 111 -82 37 -163 74 -178 82 -28 14 -29 14 -22 -9z"/>
<path d="M6926 9157 c-63 -137 -229 -332 -367 -429 -59 -42 -235 -137 -263
-142 -6 -1 -37 -11 -68 -21 -65 -21 -64 -17 -49 -125 5 -36 12 -85 15 -110 13
-108 37 -308 41 -335 2 -16 7 -52 10 -80 3 -27 8 -63 10 -80 2 -16 7 -57 11
-90 3 -33 8 -68 9 -77 2 -9 7 -48 10 -85 4 -37 8 -75 10 -83 2 -8 6 -40 10
-70 3 -30 8 -71 10 -90 3 -19 8 -57 11 -85 3 -27 7 -61 9 -75 2 -14 6 -50 10
-80 4 -30 8 -66 10 -80 2 -14 6 -50 10 -80 3 -30 8 -66 10 -80 2 -14 7 -50 10
-80 3 -30 8 -66 10 -80 2 -14 7 -52 10 -85 3 -33 8 -71 10 -85 2 -14 7 -47 10
-75 3 -27 7 -66 10 -85 2 -19 7 -57 10 -85 4 -27 8 -62 11 -77 4 -27 12 -96
18 -153 3 -29 7 -60 27 -220 5 -44 12 -98 15 -120 2 -22 6 -56 9 -75 5 -39 13
-101 19 -157 11 -89 19 -149 22 -166 1 -10 6 -50 9 -89 4 -40 8 -75 10 -78 2
-3 6 -35 9 -72 4 -37 8 -75 10 -85 2 -10 7 -45 10 -78 4 -33 9 -69 11 -80 2
-11 4 -24 4 -30 1 -5 17 13 35 40 71 102 826 1182 870 1245 25 36 154 220 286
410 131 190 243 350 247 355 5 6 202 287 437 625 236 338 439 628 451 643 l22
29 -52 77 c-72 108 -111 234 -114 372 l-1 36 -107 33 c-104 31 -528 160 -723
220 -52 16 -259 79 -460 140 -201 61 -408 124 -460 140 -53 17 -100 30 -105
30 -6 0 -19 -20 -29 -43z"/>
<path d="M26212 9111 c-21 -69 -126 -264 -186 -346 -57 -77 -204 -231 -276
-289 -163 -131 -406 -243 -615 -281 -49 -9 -101 -20 -114 -23 l-23 -7 2 -505
c1 -457 6 -1840 11 -3582 1 -357 5 -648 9 -648 6 0 290 191 418 281 321 227
687 504 927 700 57 47 291 244 295 249 3 3 37 32 75 65 39 33 86 74 105 91 19
18 47 42 62 55 334 296 859 819 1168 1164 30 33 70 78 90 99 19 21 40 44 45
50 110 121 427 505 595 722 68 87 128 164 132 169 188 239 630 882 793 1155
21 36 45 72 52 81 22 27 15 35 -39 46 -77 15 -274 60 -413 93 -66 16 -131 31
-145 34 -14 2 -65 14 -115 25 -49 12 -151 35 -225 52 -74 16 -142 32 -150 34
-8 2 -64 15 -125 28 -60 14 -202 46 -315 72 -113 25 -252 57 -310 70 -58 13
-157 36 -220 50 -63 15 -122 28 -130 30 -8 2 -67 15 -130 30 -63 14 -126 29
-140 31 -14 3 -63 14 -110 25 -47 12 -95 23 -108 25 -13 3 -83 18 -155 35 -73
17 -141 33 -152 35 -26 5 -40 8 -170 39 -175 41 -378 85 -390 85 -7 0 -17 -18
-23 -39z"/>
<path d="M23350 9074 c-112 -30 -218 -58 -260 -68 -8 -2 -103 -27 -210 -55
-107 -29 -202 -54 -211 -56 -9 -2 -119 -30 -245 -64 -126 -33 -272 -71 -324
-85 -52 -14 -259 -68 -460 -121 -201 -53 -372 -98 -380 -100 -8 -1 -51 -13
-95 -24 -44 -12 -87 -23 -95 -25 -8 -2 -67 -18 -130 -34 -63 -17 -194 -51
-290 -76 -239 -62 -235 -61 -235 -73 0 -10 432 -618 1370 -1928 50 -69 97
-136 105 -148 24 -36 378 -529 398 -556 18 -22 20 -22 48 -8 90 45 339 68 437
39 l38 -11 63 132 c35 73 94 195 131 272 37 77 82 172 100 210 18 39 64 135
103 215 162 337 389 811 462 965 26 55 77 161 112 235 36 74 87 180 113 235
26 55 83 174 127 264 64 135 76 166 64 173 -8 4 -52 36 -98 69 -201 149 -378
375 -477 612 -11 26 -24 47 -28 46 -4 -1 -64 -16 -133 -35z"/>
<path d="M5193 8691 c-16 -16 -57 -61 -93 -102 -36 -40 -72 -80 -80 -89 -8 -9
-67 -74 -130 -145 -63 -72 -124 -139 -135 -151 -11 -11 -51 -56 -90 -99 -63
-71 -99 -111 -200 -224 -16 -19 -34 -39 -40 -45 -130 -146 -181 -202 -185
-206 -26 -24 -250 -280 -250 -284 0 -6 158 -225 170 -236 3 -3 18 -23 35 -45
37 -51 316 -406 330 -421 5 -6 26 -30 45 -54 54 -67 147 -178 209 -250 75 -86
271 -309 296 -336 11 -12 67 -73 125 -135 134 -147 651 -663 799 -799 201
-186 343 -311 347 -308 1 2 -1 23 -6 48 -4 25 -11 72 -14 105 -7 69 -14 127
-21 171 -2 17 -7 57 -10 90 -3 32 -8 70 -10 84 -3 14 -7 48 -10 75 -3 28 -24
194 -45 370 -22 176 -42 343 -46 370 -3 28 -7 57 -9 65 -2 8 -7 45 -10 82 -3
37 -7 75 -9 85 -2 10 -7 45 -10 78 -4 33 -9 74 -11 90 -2 17 -7 53 -10 80 -3
28 -8 64 -10 80 -2 17 -9 73 -15 125 -6 52 -13 106 -15 120 -2 14 -9 66 -15
115 -6 50 -13 107 -15 128 -3 20 -7 54 -10 75 -2 20 -7 62 -10 92 -3 30 -8 66
-10 80 -2 14 -7 50 -10 80 -3 30 -8 66 -10 80 -2 14 -6 48 -10 75 -3 28 -8 66
-10 85 -2 19 -7 60 -10 90 -3 30 -8 66 -10 80 -3 14 -7 48 -10 75 -3 28 -8 64
-10 80 -2 17 -7 53 -10 80 -3 28 -8 64 -10 80 -2 17 -7 56 -10 88 -4 32 -8 66
-10 75 -6 32 -19 157 -17 165 1 4 -1 7 -5 7 -254 14 -421 62 -598 169 l-65 40
-27 -28z"/>
<path d="M10058 8378 c-42 -119 -151 -260 -247 -318 -14 -8 -5 -37 239 -720
62 -174 95 -266 130 -365 17 -49 35 -99 40 -110 5 -11 36 -99 70 -195 34 -96
70 -197 80 -225 10 -27 61 -168 112 -313 l93 -263 55 7 c169 22 344 6 494 -44
l85 -29 143 233 c79 129 148 242 153 252 6 9 53 87 105 172 52 85 99 163 105
172 10 18 166 274 282 462 33 56 80 133 104 171 72 119 397 651 502 823 55 89
98 165 96 167 -3 2 -52 6 -109 9 -156 9 -336 19 -525 31 -38 2 -115 7 -170 10
-109 6 -225 13 -350 20 -44 3 -123 8 -175 10 -52 3 -129 8 -170 10 -73 5 -195
12 -335 20 -132 7 -390 22 -510 30 -38 3 -119 7 -178 11 l-108 5 -11 -33z"/>
<path d="M24352 8236 c-10 -12 -23 -40 -262 -541 -26 -55 -75 -156 -108 -225
-66 -138 -158 -330 -234 -490 -28 -58 -93 -192 -144 -299 -52 -106 -94 -195
-94 -196 0 -2 -39 -84 -86 -182 -47 -98 -108 -223 -134 -278 -26 -55 -76 -158
-110 -230 -34 -71 -73 -154 -86 -183 l-25 -53 33 -27 c168 -140 268 -347 271
-561 2 -134 -22 -249 -70 -345 -13 -25 -13 -29 4 -41 10 -7 79 -62 154 -121
75 -60 151 -121 170 -135 60 -47 453 -359 489 -388 28 -23 254 -202 320 -254
9 -7 49 -39 90 -71 134 -106 165 -131 182 -144 17 -14 17 26 3 3708 -4 1107
-1 998 -22 997 -40 -2 -142 16 -234 42 -70 20 -101 25 -107 17z"/>
<path d="M20020 7848 c-85 -149 -180 -314 -211 -367 -77 -132 -282 -488 -307
-531 -45 -81 -508 -882 -553 -958 -27 -45 -49 -85 -49 -87 0 -2 -26 -48 -58
-102 -68 -113 -197 -337 -234 -404 -44 -79 -53 -94 -64 -109 -6 -8 -25 -40
-41 -70 -16 -30 -41 -73 -55 -95 -13 -22 -28 -47 -32 -55 -4 -8 -12 -24 -19
-35 -11 -18 -82 -140 -178 -308 -19 -34 -45 -78 -56 -97 -11 -19 -89 -154
-173 -300 -84 -146 -184 -319 -223 -385 -39 -66 -79 -136 -89 -155 -10 -19
-23 -42 -28 -50 -16 -25 -200 -342 -200 -344 0 -2 -22 -41 -50 -87 -54 -92
-59 -104 -32 -90 18 10 250 94 267 97 6 1 35 12 65 24 30 12 62 23 70 25 17 4
234 82 265 95 11 4 99 36 195 70 96 33 191 67 210 75 19 8 132 48 250 90 253
90 608 217 770 275 152 55 361 129 545 195 83 29 213 75 290 103 316 115 841
303 855 307 13 3 228 81 375 135 28 10 115 42 195 70 l146 52 0 111 c0 119 5
155 32 242 21 65 89 196 112 215 3 3 18 21 33 41 l26 35 -174 245 c-95 134
-177 249 -182 254 -12 14 -151 210 -192 270 -19 28 -37 52 -40 55 -3 3 -10 13
-16 22 -9 16 -675 950 -703 986 -7 9 -107 150 -223 312 -115 162 -217 305
-227 318 -9 12 -42 58 -72 102 -30 44 -57 80 -60 79 -3 0 -75 -122 -160 -271z"/>
<path d="M12835 7923 c-59 -98 -118 -194 -130 -213 -12 -19 -85 -138 -162
-265 -77 -126 -171 -281 -209 -342 -38 -62 -78 -128 -89 -148 -11 -19 -61
-101 -111 -182 -50 -82 -211 -346 -359 -588 -147 -242 -280 -460 -296 -485
l-28 -44 75 -75 c80 -79 166 -200 207 -291 37 -81 67 -163 67 -182 0 -19 28
-50 39 -44 4 3 40 7 81 10 84 7 193 15 260 21 25 2 79 6 120 10 41 3 100 8
130 10 30 3 93 7 140 11 47 3 101 7 120 9 19 2 73 6 120 10 47 3 105 7 130 10
25 2 83 7 130 10 47 3 105 8 130 10 25 2 81 6 125 10 44 3 105 7 135 10 30 2
87 7 125 10 39 3 93 8 120 10 28 3 86 7 130 10 44 3 100 8 125 10 25 3 81 7
125 10 44 4 100 8 125 10 25 2 90 7 145 10 55 4 109 9 120 10 11 1 37 3 58 4
20 0 37 5 37 10 0 7 -25 52 -154 274 -64 112 -369 639 -448 777 -53 91 -121
210 -153 265 -32 55 -135 233 -228 395 -94 162 -178 309 -188 325 -10 17 -24
41 -32 55 -7 14 -64 113 -127 220 -62 107 -120 209 -130 225 -9 17 -47 83 -84
147 -38 65 -72 120 -76 123 -5 3 -56 -75 -115 -172z"/>
<path d="M9155 7916 c-31 -45 -203 -290 -381 -546 -179 -256 -341 -488 -362
-517 -20 -29 -89 -127 -152 -218 -63 -91 -169 -243 -236 -338 -66 -94 -219
-314 -340 -487 -121 -173 -240 -344 -265 -380 -26 -36 -68 -97 -95 -136 -27
-38 -98 -140 -157 -225 -265 -378 -337 -482 -335 -484 2 -2 62 3 133 11 72 7
157 16 190 19 33 3 76 8 95 10 35 4 89 10 190 20 30 3 80 8 110 11 30 3 71 7
90 9 63 7 134 15 190 20 51 4 94 9 195 20 22 2 72 7 110 10 39 4 81 8 95 10
14 2 54 7 90 10 36 3 81 7 100 10 19 2 64 7 100 10 36 3 81 8 100 10 19 2 64
7 100 11 36 3 79 8 95 9 17 2 66 7 110 10 44 4 88 9 97 10 9 2 48 6 85 10 37
3 84 8 103 10 87 9 139 15 185 19 49 5 91 9 205 21 30 3 76 8 103 11 l47 6 1
41 c3 139 72 343 164 486 84 132 214 257 346 334 l47 27 -13 37 c-17 50 -353
990 -415 1163 -27 74 -108 302 -180 505 -72 204 -140 393 -150 420 l-18 50
-103 7 c-59 3 -129 14 -161 25 l-57 19 -56 -80z"/>
<path d="M14657 5003 c-1 0 -45 -4 -97 -8 -52 -3 -111 -8 -130 -10 -19 -1 -78
-6 -130 -10 -52 -3 -111 -8 -130 -10 -19 -2 -75 -6 -125 -10 -49 -3 -108 -8
-130 -10 -50 -5 -213 -18 -380 -30 -44 -3 -102 -8 -130 -10 -27 -3 -87 -7
-131 -10 -45 -3 -99 -7 -120 -9 -22 -2 -79 -7 -129 -10 -49 -4 -110 -9 -135
-11 -25 -2 -81 -7 -125 -10 -44 -3 -102 -8 -130 -10 -27 -2 -79 -7 -115 -10
-83 -6 -163 -12 -270 -20 -47 -3 -101 -8 -120 -10 -19 -2 -78 -7 -130 -10 -52
-3 -104 -8 -115 -10 -11 -2 -27 -4 -35 -4 -12 -1 -19 -23 -28 -88 -28 -212
-133 -423 -289 -580 -83 -84 -83 -66 -3 -193 26 -41 76 -122 112 -180 36 -58
114 -184 174 -280 60 -96 111 -179 114 -185 5 -10 137 -224 205 -330 17 -27
85 -137 151 -242 65 -106 143 -230 171 -275 29 -46 56 -89 59 -97 4 -7 60
-100 126 -205 65 -105 122 -198 127 -206 72 -116 200 -320 222 -352 11 -15 19
-29 19 -32 0 -4 76 -129 106 -174 1 -2 78 42 170 96 160 94 872 513 904 533
79 47 300 177 311 183 8 3 28 14 44 25 41 25 590 348 1200 707 76 45 141 87
143 92 2 6 -14 42 -36 79 -22 37 -49 84 -60 103 -11 19 -52 91 -92 160 -40 69
-81 141 -92 160 -11 19 -87 150 -168 290 -81 140 -181 314 -222 385 -126 219
-261 452 -365 631 -55 94 -102 178 -106 187 -5 12 -17 16 -47 14 -23 -1 -42
-3 -43 -4z"/>
<path d="M9749 4596 c-2 -2 -42 -7 -89 -10 -47 -4 -96 -9 -110 -11 -33 -6
-111 -14 -190 -20 -35 -3 -76 -7 -90 -9 -14 -3 -56 -7 -95 -11 -38 -3 -90 -8
-115 -11 -99 -11 -128 -13 -195 -20 -38 -3 -76 -7 -85 -9 -9 -2 -54 -6 -101
-10 -46 -3 -91 -8 -99 -10 -8 -2 -51 -7 -95 -10 -44 -4 -93 -8 -110 -11 -16
-2 -59 -6 -95 -9 -36 -3 -76 -8 -90 -10 -14 -2 -61 -7 -105 -10 -44 -3 -91 -8
-105 -10 -24 -4 -53 -7 -190 -20 -36 -4 -76 -8 -90 -10 -14 -2 -61 -6 -104
-10 -43 -4 -86 -8 -95 -10 -9 -1 -52 -6 -96 -9 -44 -4 -91 -9 -105 -11 -14 -3
-56 -7 -95 -10 -38 -3 -81 -7 -95 -9 -30 -6 -156 -19 -187 -19 -13 -1 -23 -4
-23 -8 0 -4 43 -40 96 -80 53 -41 101 -79 108 -84 65 -61 594 -441 851 -612
243 -161 707 -453 721 -453 3 0 23 -12 47 -27 47 -30 208 -123 213 -123 1 0
44 -24 96 -53 103 -60 209 -117 468 -253 168 -88 616 -300 815 -386 77 -33
163 -71 190 -83 303 -136 1021 -398 1475 -539 316 -97 769 -221 778 -211 2 2
-27 52 -65 112 -37 60 -73 118 -80 129 -6 10 -29 46 -49 79 -60 95 -233 375
-636 1025 -206 333 -392 633 -414 668 -21 34 -57 92 -79 127 -22 36 -73 118
-113 182 -40 65 -79 127 -85 138 -19 32 -28 34 -74 14 -40 -17 -110 -38 -188
-55 -64 -14 -290 -13 -365 2 -383 74 -688 337 -809 695 -25 75 -39 98 -52 85z"/>
<path d="M23088 4357 c-25 -24 -133 -87 -193 -111 -85 -34 -198 -54 -296 -51
-85 2 -196 21 -213 37 -6 4 -17 8 -25 8 -7 0 -38 12 -68 27 l-53 27 -24 -24
c-13 -14 -130 -149 -261 -300 -131 -151 -251 -290 -266 -307 -16 -18 -89 -101
-161 -185 -73 -84 -145 -166 -159 -183 -21 -24 -336 -387 -693 -799 -28 -32
-58 -67 -66 -76 -8 -9 -37 -43 -65 -75 -27 -32 -54 -63 -60 -69 -5 -6 -39 -45
-75 -86 -36 -41 -78 -90 -95 -109 -16 -19 -41 -47 -55 -63 -14 -15 -29 -34
-35 -41 -12 -14 -148 -170 -155 -177 -3 -3 -43 -50 -90 -105 -47 -55 -101
-118 -121 -140 -94 -103 -291 -336 -288 -340 3 -2 34 3 70 10 36 8 77 16 90
18 23 5 200 43 244 53 11 3 31 7 45 10 14 3 33 7 42 10 10 3 29 7 43 10 43 8
483 121 620 159 355 99 833 252 1115 356 208 77 450 170 497 190 23 11 44 19
48 19 3 0 24 9 48 19 23 11 116 51 207 89 91 38 191 82 223 96 31 14 83 38
115 52 184 82 797 386 922 457 25 14 65 36 90 49 25 12 94 51 154 86 60 34
110 62 111 62 2 0 33 18 70 41 37 22 84 50 104 61 83 46 191 113 191 118 -1 3
-62 52 -136 110 -75 58 -145 113 -157 124 -12 10 -38 30 -57 45 -19 14 -37 28
-40 31 -3 3 -144 116 -314 250 -170 135 -408 324 -530 420 -293 232 -274 220
-298 197z"/>
<path d="M16030 2745 c-30 -19 -62 -38 -70 -42 -8 -4 -77 -44 -154 -90 -76
-46 -141 -83 -143 -83 -3 0 -17 -8 -31 -19 -15 -10 -47 -30 -72 -43 -25 -14
-117 -68 -205 -120 -293 -174 -899 -531 -960 -566 -33 -19 -143 -85 -245 -145
-102 -60 -205 -121 -230 -135 -25 -14 -99 -58 -165 -97 -66 -39 -157 -93 -202
-120 -46 -26 -83 -52 -83 -58 0 -6 3 -8 6 -5 3 4 19 2 36 -3 17 -5 49 -11 72
-15 22 -3 43 -7 46 -9 3 -2 26 -6 50 -10 25 -3 52 -8 60 -10 8 -2 31 -7 50
-10 19 -3 85 -14 145 -25 61 -10 128 -21 150 -25 49 -7 161 -24 195 -30 14 -2
45 -7 69 -10 23 -3 55 -7 70 -9 14 -3 50 -8 80 -11 30 -4 61 -8 70 -10 9 -1
45 -6 81 -10 36 -4 74 -9 84 -11 10 -2 50 -6 88 -9 38 -4 76 -8 86 -10 9 -1
56 -6 103 -9 47 -4 96 -8 110 -11 13 -2 62 -6 109 -10 47 -3 102 -8 123 -10
21 -2 86 -7 145 -10 59 -4 129 -8 156 -10 189 -15 432 -20 911 -19 493 0 684
4 910 19 227 15 271 18 400 29 33 3 94 8 135 11 41 3 82 8 90 10 8 2 51 6 95
10 44 4 94 8 110 10 17 2 53 7 80 10 28 3 61 7 75 10 14 2 50 7 81 10 31 3 65
7 75 9 11 2 50 7 87 11 42 5 66 12 64 18 -3 10 -84 65 -147 100 -14 7 -101 63
-195 122 -294 188 -522 332 -563 356 -15 9 -134 84 -265 168 -132 83 -241 151
-243 151 -3 0 -10 5 -17 11 -10 9 -114 75 -460 291 -64 40 -117 74 -247 156
-30 20 -80 51 -110 70 -30 19 -71 45 -90 57 -74 48 -341 215 -343 215 -1 -1
-27 -16 -57 -35z"/>
</g>
</svg>
